<svg xmlns="http://www.w3.org/2000/svg" width="368" height="452" fill="none"  xmlns:v="https://vecta.io/nano"><style><![CDATA[.B{fill-opacity:.05}.C{fill:#0b70e7}]]></style><g filter="url(#A)"><rect x="24" y="20" width="320" height="400" rx="6" fill="#fff"/></g><path d="M12 28h344v56H12z" class="C"/><path fill="url(#B)" fill-opacity=".24" d="M12 28h344v56H12z"/><path d="M233 28h100l-30 56H203l30-56z" class="C"/><path d="M303 28h10l-30 56h-10l30-56z" fill="#ffc120"/><path d="M283 28h10l-30 56h-10l30-56z" fill="#fff"/><path d="M64 355h240v97H64z" class="C"/><path fill="url(#C)" fill-opacity=".24" d="M64 355h240v97H64z"/><path d="M69.856 62.128c-1.493 0-2.624-.384-3.392-1.152-.757-.779-1.136-1.925-1.136-3.44v-6.928h1.296v7.04c0 1.109.272 1.947.816 2.512s1.349.848 2.416.848c1.056 0 1.851-.283 2.384-.848.544-.565.816-1.403.816-2.512v-7.04h1.312v6.928c0 1.504-.384 2.645-1.152 3.424s-1.888 1.168-3.36 1.168zm7.255-11.52h3.824c1.824 0 3.232.496 4.224 1.488 1.003.981 1.504 2.379 1.504 4.192 0 1.824-.501 3.232-1.504 4.224-.992.992-2.4 1.488-4.224 1.488h-3.824V50.608zm3.744 10.272c1.472 0 2.576-.384 3.312-1.152.747-.768 1.12-1.915 1.12-3.44 0-3.04-1.477-4.56-4.432-4.56h-2.432v9.152h2.432zm15.4-1.808h-5.952L89.039 62h-1.36l5.008-11.392h1.152L98.847 62h-1.344l-1.248-2.928zm-.464-1.088l-2.512-5.856-2.512 5.856h5.024zm7.604-.592V62h-1.312v-4.624l-4.48-6.768h1.536l3.616 5.6 3.616-5.6h1.504l-4.48 6.784zm11.828 1.68h-5.952L108.007 62h-1.36l5.008-11.392h1.152L117.815 62h-1.344l-1.248-2.928zm-.464-1.088l-2.512-5.856-2.512 5.856h5.024zm13.894-7.376V62h-1.024l-6.88-9.168V62h-1.232V50.608h1.008l6.88 9.168v-9.168h1.248zm6.974 0h1.312V60.88h5.712V62h-7.024V50.608zm9.455 1.12h-3.968v-1.12h9.264v1.12h-3.968V62h-1.328V51.728zm6.889-1.12h3.824c1.824 0 3.232.496 4.224 1.488 1.002.981 1.504 2.379 1.504 4.192 0 1.824-.502 3.232-1.504 4.224-.992.992-2.4 1.488-4.224 1.488h-3.824V50.608zm3.744 10.272c1.472 0 2.576-.384 3.312-1.152.746-.768 1.12-1.915 1.12-3.44 0-3.04-1.478-4.56-4.432-4.56h-2.432v9.152h2.432zm8.941-.528V62h-1.648v-1.648h1.648z" fill="#fff"/><path d="M65.078 102.032h1.806V112h-1.806v-9.968zm6.065 4.214v3.164c0 .831.387 1.246 1.162 1.246.215 0 .448-.037.7-.112v1.386c-.308.112-.681.168-1.12.168-.803 0-1.419-.224-1.848-.672s-.644-1.092-.644-1.932v-3.248h-1.358v-1.316h1.358v-1.722l1.75-.588v2.31h1.876v1.316h-1.876zm9.267 2.31h-4.872c.037.756.224 1.316.56 1.68.345.355.854.532 1.526.532.775 0 1.493-.252 2.156-.756l.504 1.204c-.336.271-.751.49-1.246.658-.485.159-.98.238-1.484.238-1.157 0-2.067-.327-2.73-.98s-.994-1.549-.994-2.688c0-.719.145-1.358.434-1.918s.695-.994 1.218-1.302a3.36 3.36 0 0 1 1.778-.476c.971 0 1.736.317 2.296.952.569.625.854 1.489.854 2.59v.266zm-3.108-2.548c-.467 0-.849.14-1.148.42-.289.271-.476.667-.56 1.19h3.29c-.056-.532-.219-.933-.49-1.204-.261-.271-.625-.406-1.092-.406zm12.934-1.26c.803 0 1.4.243 1.792.728.392.476.588 1.204.588 2.184V112h-1.75v-4.284c0-.56-.093-.961-.28-1.204-.177-.252-.476-.378-.896-.378-.485 0-.868.173-1.148.518-.271.336-.406.803-.406 1.4V112h-1.75v-4.284c0-.551-.098-.952-.294-1.204-.187-.252-.485-.378-.896-.378-.485 0-.868.173-1.148.518-.28.336-.42.803-.42 1.4V112h-1.736v-5.068c0-.747-.037-1.414-.112-2.002h1.638l.126 1.12c.205-.42.499-.742.882-.966a2.66 2.66 0 0 1 1.344-.336c1.083 0 1.787.448 2.114 1.344.224-.42.541-.747.952-.98.42-.243.887-.364 1.4-.364z" fill="#000"/><path d="M67.416 204.516h-3.248v-1.484h8.33v1.484h-3.262V213h-1.82v-8.484zm8.303 8.596c-.719 0-1.353-.149-1.904-.448-.541-.299-.961-.723-1.26-1.274-.289-.56-.434-1.213-.434-1.96s.145-1.395.434-1.946c.299-.56.719-.989 1.26-1.288.551-.299 1.185-.448 1.904-.448.709 0 1.335.149 1.876.448a3.02 3.02 0 0 1 1.246 1.288c.299.551.448 1.199.448 1.946s-.149 1.4-.448 1.96c-.289.551-.705.975-1.246 1.274s-1.167.448-1.876.448zm-.014-1.372c.597 0 1.05-.191 1.358-.574.317-.392.476-.971.476-1.736 0-.756-.159-1.33-.476-1.722-.317-.401-.765-.602-1.344-.602-.588 0-1.041.201-1.358.602-.317.392-.476.966-.476 1.722 0 .765.154 1.344.462 1.736.317.383.77.574 1.358.574zm7.278-4.494v3.164c0 .831.387 1.246 1.162 1.246.215 0 .448-.037.7-.112v1.386c-.308.112-.681.168-1.12.168-.803 0-1.419-.224-1.848-.672s-.644-1.092-.644-1.932v-3.248h-1.358v-1.316h1.358v-1.722l1.75-.588v2.31h1.876v1.316h-1.876zm9.841-1.316V213h-1.722v-1.134c-.215.392-.523.7-.924.924-.401.215-.859.322-1.372.322-.616 0-1.162-.149-1.638-.448s-.845-.723-1.106-1.274-.392-1.19-.392-1.918.131-1.372.392-1.932c.271-.569.644-1.008 1.12-1.316.476-.317 1.017-.476 1.624-.476.513 0 .971.112 1.372.336a2.23 2.23 0 0 1 .924.91v-1.064h1.722zm-3.542 5.81c.579 0 1.027-.201 1.344-.602s.476-.966.476-1.694c0-.747-.159-1.321-.476-1.722s-.77-.602-1.358-.602c-.579 0-1.031.21-1.358.63-.317.411-.476.985-.476 1.722 0 .728.159 1.288.476 1.68.327.392.784.588 1.372.588zm5.448-9.044h1.736V213h-1.736v-10.304zm7.619.336h4.326c1.073 0 1.908.261 2.506.784.597.513.896 1.218.896 2.114s-.304 1.605-.91 2.128c-.598.523-1.428.784-2.492.784h-2.52V213h-1.806v-9.968zm4.116 4.41c.625 0 1.096-.126 1.414-.378.326-.261.49-.635.49-1.12 0-.495-.159-.868-.476-1.12-.318-.261-.794-.392-1.428-.392h-2.31v3.01h2.31zm8.753-1.68c.271 0 .504.037.7.112l-.014 1.596a2.44 2.44 0 0 0-.924-.182c-.597 0-1.055.173-1.372.518-.308.345-.462.803-.462 1.372V213h-1.736v-5.068c0-.747-.037-1.414-.112-2.002h1.638l.14 1.246a2.1 2.1 0 0 1 .84-1.05c.383-.243.817-.364 1.302-.364zm1.674.168h1.736V213h-1.736v-7.07zm1.834-3.206v1.722h-1.946v-1.722h1.946zm5.023 10.388c-.737 0-1.377-.149-1.918-.448a3.06 3.06 0 0 1-1.246-1.26c-.289-.551-.434-1.195-.434-1.932s.149-1.386.448-1.946a3.26 3.26 0 0 1 1.288-1.302c.56-.317 1.204-.476 1.932-.476.504 0 .989.079 1.456.238.476.159.854.378 1.134.658l-.49 1.232c-.299-.243-.616-.425-.952-.546a2.72 2.72 0 0 0-.994-.196c-.635 0-1.129.201-1.484.602-.355.392-.532.961-.532 1.708s.173 1.316.518 1.708c.355.392.854.588 1.498.588a2.72 2.72 0 0 0 .994-.196c.336-.131.653-.317.952-.56l.49 1.232c-.299.28-.686.499-1.162.658s-.975.238-1.498.238zm10.023-3.556h-4.872c.037.756.224 1.316.56 1.68.345.355.854.532 1.526.532.775 0 1.493-.252 2.156-.756l.504 1.204c-.336.271-.751.49-1.246.658-.485.159-.98.238-1.484.238-1.157 0-2.067-.327-2.73-.98s-.994-1.549-.994-2.688c0-.719.145-1.358.434-1.918s.695-.994 1.218-1.302a3.36 3.36 0 0 1 1.778-.476c.971 0 1.736.317 2.296.952.569.625.854 1.489.854 2.59v.266zm-3.108-2.548c-.467 0-.849.14-1.148.42-.289.271-.476.667-.56 1.19h3.29c-.056-.532-.219-.933-.49-1.204-.261-.271-.625-.406-1.092-.406z" fill="#2981ea"/><path d="M73.394 248.61v4.788c-.457.224-1.008.401-1.652.532s-1.302.196-1.974.196c-1.027 0-1.918-.205-2.674-.616a4.17 4.17 0 0 1-1.736-1.764c-.401-.765-.602-1.68-.602-2.744 0-1.045.201-1.951.602-2.716s.971-1.353 1.708-1.764c.747-.411 1.619-.616 2.618-.616.7 0 1.353.103 1.96.308.616.205 1.129.495 1.54.868l-.616 1.316c-.467-.364-.924-.625-1.372-.784s-.938-.238-1.47-.238c-1.027 0-1.806.308-2.338.924-.523.616-.784 1.517-.784 2.702 0 1.223.271 2.147.812 2.772.541.616 1.349.924 2.422.924a7.16 7.16 0 0 0 1.932-.266v-2.52h-2.156v-1.302h3.78zm5.408 5.516c-.765 0-1.484-.103-2.156-.308-.663-.205-1.227-.499-1.694-.882l.616-1.316c.485.364.989.635 1.512.812a5.74 5.74 0 0 0 1.736.252c.691 0 1.223-.121 1.596-.364.383-.243.574-.583.574-1.022 0-.373-.177-.658-.532-.854-.345-.205-.919-.397-1.722-.574-1.251-.271-2.161-.621-2.73-1.05s-.854-1.055-.854-1.876c0-.588.159-1.111.476-1.568s.765-.817 1.344-1.078c.588-.261 1.265-.392 2.03-.392a6.07 6.07 0 0 1 1.988.322c.635.205 1.153.495 1.554.868l-.602 1.316c-.887-.709-1.867-1.064-2.94-1.064-.644 0-1.153.135-1.526.406-.373.261-.56.621-.56 1.078a.99.99 0 0 0 .49.896c.336.205.905.397 1.708.574.831.196 1.507.411 2.03.644.523.224.924.518 1.204.882.28.355.42.803.42 1.344 0 .597-.159 1.12-.476 1.568-.317.439-.775.779-1.372 1.022s-1.302.364-2.114.364zm7.769-8.61h-3.248v-1.484h8.33v1.484H88.39V254h-1.82v-8.484zm13.826 2.114c.625 0 1.176.135 1.652.406a2.72 2.72 0 0 1 1.106 1.12c.261.476.392 1.027.392 1.652 0 .653-.149 1.232-.448 1.736a3.06 3.06 0 0 1-1.288 1.162c-.56.271-1.209.406-1.946.406a5.74 5.74 0 0 1-1.848-.308c-.607-.215-1.106-.499-1.498-.854l.602-1.316c.905.691 1.829 1.036 2.772 1.036.625 0 1.101-.154 1.428-.462.336-.317.504-.765.504-1.344 0-.551-.173-.989-.518-1.316-.336-.336-.789-.504-1.358-.504a2.76 2.76 0 0 0-1.106.224c-.345.14-.649.35-.91.63H96.84v-5.866h6.244v1.4h-4.48v2.716c.504-.345 1.101-.518 1.792-.518zm6.785 2.352c-.784 0-1.4-.257-1.848-.77-.439-.523-.658-1.283-.658-2.282 0-.989.219-1.741.658-2.254.448-.523 1.064-.784 1.848-.784.793 0 1.414.261 1.862.784.448.513.672 1.265.672 2.254 0 .999-.224 1.759-.672 2.282-.448.513-1.069.77-1.862.77zm-.098 4.018l5.768-9.968h1.554L108.623 254h-1.54zm.098-5.152c.364 0 .63-.149.798-.448s.252-.789.252-1.47c0-.663-.089-1.143-.266-1.442-.168-.308-.43-.462-.784-.462a.82.82 0 0 0-.77.462c-.168.299-.252.779-.252 1.442 0 .672.084 1.162.252 1.47.168.299.424.448.77.448zm7.112 5.25c-.794 0-1.414-.257-1.862-.77-.439-.523-.658-1.288-.658-2.296 0-.989.219-1.741.658-2.254.448-.513 1.068-.77 1.862-.77s1.409.257 1.848.77c.448.513.672 1.269.672 2.268s-.224 1.759-.672 2.282c-.439.513-1.055.77-1.848.77zm0-1.134c.354 0 .616-.149.784-.448.168-.308.252-.798.252-1.47 0-.663-.089-1.143-.266-1.442a.82.82 0 0 0-.77-.462.83.83 0 0 0-.784.462c-.168.299-.252.779-.252 1.442 0 .672.084 1.162.252 1.47.168.299.429.448.784.448zm-44.806 34.148c-.943 0-1.764-.205-2.464-.616-.691-.411-1.223-.999-1.596-1.764-.373-.775-.56-1.685-.56-2.73s.187-1.946.56-2.702c.373-.765.905-1.353 1.596-1.764.7-.411 1.521-.616 2.464-.616.691 0 1.321.107 1.89.322.579.205 1.078.518 1.498.938l-.434.882c-.476-.411-.947-.705-1.414-.882-.457-.177-.966-.266-1.526-.266-1.092 0-1.941.355-2.548 1.064-.597.709-.896 1.717-.896 3.024 0 1.316.299 2.333.896 3.052.597.709 1.447 1.064 2.548 1.064.56 0 1.069-.089 1.526-.266.467-.177.938-.471 1.414-.882l.434.882c-.42.42-.919.737-1.498.952-.569.205-1.199.308-1.89.308zm13.046-5.306v4.62c-.392.205-.905.373-1.54.504a10.29 10.29 0 0 1-1.932.182c-.989 0-1.843-.201-2.562-.602-.719-.411-1.269-.999-1.652-1.764-.373-.765-.56-1.68-.56-2.744 0-1.055.187-1.96.56-2.716.383-.765.924-1.349 1.624-1.75.709-.411 1.545-.616 2.506-.616.7 0 1.339.107 1.918.322a3.94 3.94 0 0 1 1.512.938l-.448.882c-.485-.411-.961-.705-1.428-.882-.457-.187-.975-.28-1.554-.28-1.129 0-1.997.355-2.604 1.064-.597.7-.896 1.713-.896 3.038 0 1.353.308 2.385.924 3.094.616.7 1.512 1.05 2.688 1.05.831 0 1.629-.131 2.394-.392v-3.038h-2.478v-.91h3.528zm5.522 5.306c-1.559 0-2.8-.42-3.724-1.26l.434-.882c.495.42.999.719 1.512.896s1.111.266 1.792.266c.803 0 1.419-.154 1.848-.462.439-.317.658-.761.658-1.33 0-.336-.107-.607-.322-.812-.205-.215-.481-.383-.826-.504a12.36 12.36 0 0 0-1.358-.378c-.765-.168-1.395-.35-1.89-.546a2.98 2.98 0 0 1-1.204-.84c-.308-.373-.462-.859-.462-1.456 0-.569.149-1.069.448-1.498.299-.439.719-.779 1.26-1.022.551-.243 1.19-.364 1.918-.364a5.66 5.66 0 0 1 1.932.322c.597.215 1.101.527 1.512.938l-.448.882c-.467-.401-.943-.695-1.428-.882-.476-.187-.999-.28-1.568-.28-.775 0-1.381.168-1.82.504-.439.327-.658.779-.658 1.358 0 .504.191.882.574 1.134s.971.471 1.764.658l2.016.574c.495.168.905.429 1.232.784.327.345.49.807.49 1.386 0 .56-.149 1.055-.448 1.484-.299.42-.728.747-1.288.98-.551.233-1.199.35-1.946.35zm7.761-9.1h-3.472v-.98h8.106v.98H96.98V287h-1.162v-8.988zm16.02 8.022V287h-6.412v-.868l3.486-3.864c.466-.523.807-.994 1.022-1.414s.322-.84.322-1.26c0-.551-.159-.971-.476-1.26-.318-.299-.77-.448-1.358-.448-.952 0-1.895.383-2.828 1.148l-.434-.882c.392-.373.886-.672 1.484-.896a5.11 5.11 0 0 1 1.806-.336c.914 0 1.638.238 2.17.714.532.467.798 1.101.798 1.904a3.71 3.71 0 0 1-.392 1.652c-.252.523-.677 1.111-1.274 1.764l-2.842 3.08h4.928zm3.158-.476V287h-1.442v-1.442h1.442zm5.522-4.816c.626 0 1.172.135 1.638.406a2.65 2.65 0 0 1 1.092 1.106c.252.476.378 1.027.378 1.652s-.14 1.181-.42 1.666a2.81 2.81 0 0 1-1.176 1.134c-.504.261-1.096.392-1.778.392-.606 0-1.204-.107-1.792-.322-.588-.224-1.082-.527-1.484-.91l.434-.882c.924.765 1.872 1.148 2.842 1.148.7 0 1.246-.196 1.638-.588.402-.401.602-.943.602-1.624 0-.663-.196-1.195-.588-1.596-.392-.411-.914-.616-1.568-.616a2.69 2.69 0 0 0-2.282 1.162h-.798v-5.838h5.978v.952h-4.83v3.556c.551-.532 1.256-.798 2.114-.798zm6.953 2.268c-.756 0-1.344-.257-1.764-.77s-.63-1.274-.63-2.282c0-.999.21-1.755.63-2.268s1.008-.77 1.764-.77 1.344.257 1.764.77c.429.513.644 1.269.644 2.268 0 1.008-.215 1.769-.644 2.282-.42.513-1.008.77-1.764.77zm-.042 3.99l5.768-9.968h1.106L128.535 287h-1.106zm.042-4.802c.467 0 .807-.177 1.022-.532.224-.364.336-.933.336-1.708 0-.765-.112-1.325-.336-1.68-.215-.364-.555-.546-1.022-.546-.457 0-.798.182-1.022.546-.224.355-.336.915-.336 1.68 0 .775.112 1.344.336 1.708.224.355.565.532 1.022.532zm6.79 4.9c-.756 0-1.344-.257-1.764-.77s-.63-1.274-.63-2.282.21-1.764.63-2.268c.42-.513 1.008-.77 1.764-.77s1.344.257 1.764.77c.429.504.644 1.26.644 2.268s-.215 1.769-.644 2.282c-.42.513-1.008.77-1.764.77zm0-.812c.476 0 .821-.177 1.036-.532.224-.355.336-.924.336-1.708 0-.765-.112-1.325-.336-1.68-.224-.364-.569-.546-1.036-.546s-.812.182-1.036.546c-.215.355-.322.915-.322 1.68 0 .775.107 1.344.322 1.708.224.355.569.532 1.036.532zm-65.864 29.826c-1.559 0-2.8-.42-3.724-1.26l.434-.882c.495.42.999.719 1.512.896s1.111.266 1.792.266c.803 0 1.419-.154 1.848-.462.439-.317.658-.761.658-1.33 0-.336-.107-.607-.322-.812-.205-.215-.481-.383-.826-.504a12.36 12.36 0 0 0-1.358-.378c-.765-.168-1.395-.35-1.89-.546a2.98 2.98 0 0 1-1.204-.84c-.308-.373-.462-.859-.462-1.456 0-.569.149-1.069.448-1.498.299-.439.719-.779 1.26-1.022.551-.243 1.19-.364 1.918-.364a5.66 5.66 0 0 1 1.932.322c.597.215 1.101.527 1.512.938l-.448.882c-.467-.401-.943-.695-1.428-.882-.476-.187-.999-.28-1.568-.28-.775 0-1.381.168-1.82.504-.439.327-.658.779-.658 1.358 0 .504.191.882.574 1.134s.971.471 1.764.658l2.016.574c.495.168.905.429 1.232.784.327.345.49.807.49 1.386 0 .56-.149 1.055-.448 1.484-.299.42-.728.747-1.288.98-.551.233-1.199.35-1.946.35zm13.441-5.306v4.62c-.392.205-.905.373-1.54.504a10.3 10.3 0 0 1-1.932.182c-.989 0-1.843-.201-2.562-.602-.719-.411-1.269-.999-1.652-1.764-.373-.765-.56-1.68-.56-2.744 0-1.055.187-1.96.56-2.716.383-.765.924-1.349 1.624-1.75.709-.411 1.545-.616 2.506-.616.7 0 1.339.107 1.918.322a3.94 3.94 0 0 1 1.512.938l-.448.882c-.485-.411-.961-.705-1.428-.882-.457-.187-.975-.28-1.554-.28-1.129 0-1.997.355-2.604 1.064-.597.7-.896 1.713-.896 3.038 0 1.353.308 2.385.924 3.094.616.7 1.512 1.05 2.688 1.05.831 0 1.629-.131 2.394-.392v-3.038h-2.478v-.91h3.528zm5.522 5.306c-1.559 0-2.8-.42-3.724-1.26l.434-.882c.495.42.999.719 1.512.896s1.111.266 1.792.266c.803 0 1.419-.154 1.848-.462.439-.317.658-.761.658-1.33 0-.336-.107-.607-.322-.812-.205-.215-.481-.383-.826-.504a12.36 12.36 0 0 0-1.358-.378c-.765-.168-1.395-.35-1.89-.546a2.98 2.98 0 0 1-1.204-.84c-.308-.373-.462-.859-.462-1.456 0-.569.149-1.069.448-1.498.299-.439.719-.779 1.26-1.022.551-.243 1.19-.364 1.918-.364a5.66 5.66 0 0 1 1.932.322c.597.215 1.101.527 1.512.938l-.448.882c-.467-.401-.943-.695-1.428-.882-.476-.187-.999-.28-1.568-.28-.775 0-1.381.168-1.82.504-.439.327-.658.779-.658 1.358 0 .504.191.882.574 1.134s.971.471 1.764.658l2.016.574c.495.168.905.429 1.232.784.327.345.49.807.49 1.386 0 .56-.149 1.055-.448 1.484-.299.42-.728.747-1.288.98-.551.233-1.199.35-1.946.35zm7.762-9.1h-3.472v-.98h8.106v.98h-3.472V316h-1.162v-8.988zm16.019 8.022V316h-6.412v-.868l3.486-3.864c.467-.523.808-.994 1.022-1.414s.322-.84.322-1.26c0-.551-.158-.971-.476-1.26-.317-.299-.77-.448-1.358-.448-.952 0-1.894.383-2.828 1.148l-.434-.882c.392-.373.887-.672 1.484-.896a5.11 5.11 0 0 1 1.806-.336c.915 0 1.638.238 2.17.714.532.467.798 1.101.798 1.904 0 .569-.13 1.12-.392 1.652-.252.523-.676 1.111-1.274 1.764l-2.842 3.08h4.928zm3.159-.476V316h-1.442v-1.442h1.442zm5.522-4.816c.626 0 1.172.135 1.638.406a2.65 2.65 0 0 1 1.092 1.106c.252.476.378 1.027.378 1.652s-.14 1.181-.42 1.666a2.81 2.81 0 0 1-1.176 1.134c-.504.261-1.096.392-1.778.392-.606 0-1.204-.107-1.792-.322-.588-.224-1.082-.527-1.484-.91l.434-.882c.924.765 1.872 1.148 2.842 1.148.7 0 1.246-.196 1.638-.588.402-.401.602-.943.602-1.624 0-.663-.196-1.195-.588-1.596-.392-.411-.914-.616-1.568-.616a2.69 2.69 0 0 0-2.282 1.162h-.798v-5.838h5.978v.952h-4.83v3.556c.551-.532 1.256-.798 2.114-.798zm6.953 2.268c-.756 0-1.344-.257-1.764-.77s-.63-1.274-.63-2.282c0-.999.21-1.755.63-2.268s1.008-.77 1.764-.77 1.344.257 1.764.77c.429.513.644 1.269.644 2.268 0 1.008-.215 1.769-.644 2.282-.42.513-1.008.77-1.764.77zm-.042 3.99l5.768-9.968h1.106L127.838 316h-1.106zm.042-4.802c.466 0 .807-.177 1.022-.532.224-.364.336-.933.336-1.708 0-.765-.112-1.325-.336-1.68-.215-.364-.556-.546-1.022-.546-.458 0-.798.182-1.022.546-.224.355-.336.915-.336 1.68 0 .775.112 1.344.336 1.708.224.355.564.532 1.022.532zm6.79 4.9c-.756 0-1.344-.257-1.764-.77s-.63-1.274-.63-2.282.21-1.764.63-2.268c.42-.513 1.008-.77 1.764-.77s1.344.257 1.764.77c.429.504.644 1.26.644 2.268s-.215 1.769-.644 2.282c-.42.513-1.008.77-1.764.77zm0-.812c.476 0 .821-.177 1.036-.532.224-.355.336-.924.336-1.708 0-.765-.112-1.325-.336-1.68-.224-.364-.57-.546-1.036-.546s-.812.182-1.036.546c-.215.355-.322.915-.322 1.68 0 .775.107 1.344.322 1.708.224.355.569.532 1.036.532z" fill="#000"/><path d="M256.3 204.152c.252.28.425.625.518 1.036h1.33v1.12h-1.26c-.065.672-.313 1.227-.742 1.666-.42.439-.975.723-1.666.854a2 2 0 0 1 .756.35c.224.168.434.406.63.714l2.086 3.108h-2.156l-2.1-3.178c-.187-.299-.387-.509-.602-.63-.205-.131-.481-.196-.826-.196h-2.016v-1.414h2.982c.541 0 .971-.107 1.288-.322s.513-.532.588-.952h-4.858v-1.12h4.802c-.103-.345-.308-.602-.616-.77-.308-.177-.709-.266-1.204-.266h-2.982v-1.12h7.896v1.12H256.3zm7.975 3.724c.644.159 1.148.453 1.512.882s.546.947.546 1.554c0 .569-.159 1.069-.476 1.498-.308.42-.747.742-1.316.966-.56.224-1.209.336-1.946.336s-1.391-.112-1.96-.336c-.56-.224-.999-.546-1.316-.966-.308-.429-.462-.929-.462-1.498 0-.607.182-1.125.546-1.554s.868-.723 1.512-.882c-.56-.187-1.004-.481-1.33-.882-.318-.401-.476-.868-.476-1.4a2.3 2.3 0 0 1 .448-1.414c.298-.411.709-.723 1.232-.938.532-.224 1.134-.336 1.806-.336s1.269.112 1.792.336c.532.215.947.527 1.246.938.298.401.448.873.448 1.414s-.164 1.017-.49 1.428c-.318.401-.756.686-1.316.854zm-1.68-3.556c-.551 0-.985.126-1.302.378s-.476.611-.476 1.078a1.37 1.37 0 0 0 .476 1.078c.326.271.76.448 1.302.532.541-.084.97-.261 1.288-.532.326-.28.49-.639.49-1.078 0-.467-.159-.826-.476-1.078s-.752-.378-1.302-.378zm0 7.378c.634 0 1.129-.131 1.484-.392.364-.261.546-.635.546-1.12 0-.457-.187-.826-.56-1.106-.364-.28-.854-.462-1.47-.546-.616.084-1.111.266-1.484.546-.364.28-.546.649-.546 1.106 0 .485.177.859.532 1.12.364.261.863.392 1.498.392zm8.394 1.428c-1.185 0-2.091-.434-2.716-1.302-.616-.877-.924-2.151-.924-3.822 0-1.643.308-2.898.924-3.766.625-.868 1.531-1.302 2.716-1.302s2.086.434 2.702 1.302c.625.859.938 2.114.938 3.766 0 1.661-.313 2.931-.938 3.808-.616.877-1.517 1.316-2.702 1.316zm0-1.414c.644 0 1.111-.294 1.4-.882.299-.597.448-1.54.448-2.828 0-1.269-.149-2.193-.448-2.772-.289-.588-.756-.882-1.4-.882s-1.115.294-1.414.882c-.289.579-.434 1.503-.434 2.772 0 1.288.145 2.231.434 2.828.299.588.77.882 1.414.882zm6.925-.672v1.288c0 .495-.084.943-.252 1.344s-.453.803-.854 1.204l-.714-.574c.438-.467.69-.901.756-1.302h-.896v-1.96h1.96zm4.983 2.086c-1.185 0-2.09-.434-2.716-1.302-.616-.877-.924-2.151-.924-3.822 0-1.643.308-2.898.924-3.766.626-.868 1.531-1.302 2.716-1.302s2.086.434 2.702 1.302c.626.859.938 2.114.938 3.766 0 1.661-.312 2.931-.938 3.808-.616.877-1.516 1.316-2.702 1.316zm0-1.414c.644 0 1.111-.294 1.4-.882.299-.597.448-1.54.448-2.828 0-1.269-.149-2.193-.448-2.772-.289-.588-.756-.882-1.4-.882s-1.115.294-1.414.882c-.289.579-.434 1.503-.434 2.772 0 1.288.145 2.231.434 2.828.299.588.77.882 1.414.882zm8.395 1.414c-1.186 0-2.091-.434-2.716-1.302-.616-.877-.924-2.151-.924-3.822 0-1.643.308-2.898.924-3.766.625-.868 1.53-1.302 2.716-1.302s2.086.434 2.702 1.302c.625.859.938 2.114.938 3.766 0 1.661-.313 2.931-.938 3.808-.616.877-1.517 1.316-2.702 1.316zm0-1.414c.644 0 1.11-.294 1.4-.882.298-.597.448-1.54.448-2.828 0-1.269-.15-2.193-.448-2.772-.29-.588-.756-.882-1.4-.882s-1.116.294-1.414.882c-.29.579-.434 1.503-.434 2.772 0 1.288.144 2.231.434 2.828.298.588.77.882 1.414.882zm8.394 1.414c-1.185 0-2.09-.434-2.716-1.302-.616-.877-.924-2.151-.924-3.822 0-1.643.308-2.898.924-3.766.626-.868 1.531-1.302 2.716-1.302s2.086.434 2.702 1.302c.626.859.938 2.114.938 3.766 0 1.661-.312 2.931-.938 3.808-.616.877-1.516 1.316-2.702 1.316zm0-1.414c.644 0 1.111-.294 1.4-.882.299-.597.448-1.54.448-2.828 0-1.269-.149-2.193-.448-2.772-.289-.588-.756-.882-1.4-.882s-1.115.294-1.414.882c-.289.579-.434 1.503-.434 2.772 0 1.288.145 2.231.434 2.828.299.588.77.882 1.414.882z" fill="#2981ea"/><path d="M264.3 278.152c.252.28.425.625.518 1.036h1.33v1.12h-1.26c-.065.672-.313 1.227-.742 1.666-.42.439-.975.723-1.666.854a2 2 0 0 1 .756.35c.224.168.434.406.63.714l2.086 3.108h-2.156l-2.1-3.178c-.187-.299-.387-.509-.602-.63-.205-.131-.481-.196-.826-.196h-2.016v-1.414h2.982c.541 0 .971-.107 1.288-.322s.513-.532.588-.952h-4.858v-1.12h4.802c-.103-.345-.308-.602-.616-.77-.308-.177-.709-.266-1.204-.266h-2.982v-1.12h7.896v1.12H264.3zm9.781 7.378V287h-6.692v-1.33l3.388-3.654c.401-.439.695-.84.882-1.204s.28-.723.28-1.078c0-.457-.136-.803-.406-1.036-.262-.233-.64-.35-1.134-.35-.878 0-1.778.345-2.702 1.036l-.602-1.316c.392-.355.896-.635 1.512-.84.616-.215 1.236-.322 1.862-.322.998 0 1.787.247 2.366.742.588.485.882 1.143.882 1.974 0 .569-.126 1.106-.378 1.61-.243.504-.654 1.069-1.232 1.694l-2.45 2.604h4.424zm3.452-.49v1.288c0 .495-.084.943-.252 1.344s-.453.803-.854 1.204l-.714-.574c.438-.467.69-.901.756-1.302h-.896v-1.96h1.96zm4.983 2.086c-1.185 0-2.09-.434-2.716-1.302-.616-.877-.924-2.151-.924-3.822 0-1.643.308-2.898.924-3.766.626-.868 1.531-1.302 2.716-1.302s2.086.434 2.702 1.302c.626.859.938 2.114.938 3.766 0 1.661-.312 2.931-.938 3.808-.616.877-1.516 1.316-2.702 1.316zm0-1.414c.644 0 1.111-.294 1.4-.882.299-.597.448-1.54.448-2.828 0-1.269-.149-2.193-.448-2.772-.289-.588-.756-.882-1.4-.882s-1.115.294-1.414.882c-.289.579-.434 1.503-.434 2.772 0 1.288.145 2.231.434 2.828.299.588.77.882 1.414.882zm8.395 1.414c-1.185 0-2.091-.434-2.716-1.302-.616-.877-.924-2.151-.924-3.822 0-1.643.308-2.898.924-3.766.625-.868 1.531-1.302 2.716-1.302s2.086.434 2.702 1.302c.625.859.938 2.114.938 3.766 0 1.661-.313 2.931-.938 3.808-.616.877-1.517 1.316-2.702 1.316zm0-1.414c.644 0 1.111-.294 1.4-.882.299-.597.448-1.54.448-2.828 0-1.269-.149-2.193-.448-2.772-.289-.588-.756-.882-1.4-.882s-1.115.294-1.414.882c-.289.579-.434 1.503-.434 2.772 0 1.288.145 2.231.434 2.828.299.588.77.882 1.414.882zm8.394 1.414c-1.185 0-2.09-.434-2.716-1.302-.616-.877-.924-2.151-.924-3.822 0-1.643.308-2.898.924-3.766.626-.868 1.531-1.302 2.716-1.302s2.086.434 2.702 1.302c.626.859.938 2.114.938 3.766 0 1.661-.312 2.931-.938 3.808-.616.877-1.516 1.316-2.702 1.316zm0-1.414c.644 0 1.111-.294 1.4-.882.299-.597.448-1.54.448-2.828 0-1.269-.149-2.193-.448-2.772-.289-.588-.756-.882-1.4-.882s-1.115.294-1.414.882c-.289.579-.434 1.503-.434 2.772 0 1.288.145 2.231.434 2.828.299.588.77.882 1.414.882zm-35.005 21.44c.252.28.425.625.518 1.036h1.33v1.12h-1.26c-.065.672-.313 1.227-.742 1.666-.42.439-.975.723-1.666.854a2 2 0 0 1 .756.35c.224.168.434.406.63.714l2.086 3.108h-2.156l-2.1-3.178c-.187-.299-.387-.509-.602-.63-.205-.131-.481-.196-.826-.196h-2.016v-1.414h2.982c.541 0 .971-.107 1.288-.322s.513-.532.588-.952h-4.858v-1.12h4.802c-.103-.345-.308-.602-.616-.77-.308-.177-.709-.266-1.204-.266h-2.982v-1.12h7.896v1.12H264.3zm9.781 7.378V316h-6.692v-1.33l3.388-3.654c.401-.439.695-.84.882-1.204s.28-.723.28-1.078c0-.457-.136-.803-.406-1.036-.262-.233-.64-.35-1.134-.35-.878 0-1.778.345-2.702 1.036l-.602-1.316c.392-.355.896-.635 1.512-.84.616-.215 1.236-.322 1.862-.322.998 0 1.787.247 2.366.742.588.485.882 1.143.882 1.974 0 .569-.126 1.106-.378 1.61-.243.504-.654 1.069-1.232 1.694l-2.45 2.604h4.424zm3.452-.49v1.288c0 .495-.084.943-.252 1.344s-.453.803-.854 1.204l-.714-.574c.438-.467.69-.901.756-1.302h-.896v-1.96h1.96zm4.983 2.086c-1.185 0-2.09-.434-2.716-1.302-.616-.877-.924-2.151-.924-3.822 0-1.643.308-2.898.924-3.766.626-.868 1.531-1.302 2.716-1.302s2.086.434 2.702 1.302c.626.859.938 2.114.938 3.766 0 1.661-.312 2.931-.938 3.808-.616.877-1.516 1.316-2.702 1.316zm0-1.414c.644 0 1.111-.294 1.4-.882.299-.597.448-1.54.448-2.828 0-1.269-.149-2.193-.448-2.772-.289-.588-.756-.882-1.4-.882s-1.115.294-1.414.882c-.289.579-.434 1.503-.434 2.772 0 1.288.145 2.231.434 2.828.299.588.77.882 1.414.882zm8.395 1.414c-1.185 0-2.091-.434-2.716-1.302-.616-.877-.924-2.151-.924-3.822 0-1.643.308-2.898.924-3.766.625-.868 1.531-1.302 2.716-1.302s2.086.434 2.702 1.302c.625.859.938 2.114.938 3.766 0 1.661-.313 2.931-.938 3.808-.616.877-1.517 1.316-2.702 1.316zm0-1.414c.644 0 1.111-.294 1.4-.882.299-.597.448-1.54.448-2.828 0-1.269-.149-2.193-.448-2.772-.289-.588-.756-.882-1.4-.882s-1.115.294-1.414.882c-.289.579-.434 1.503-.434 2.772 0 1.288.145 2.231.434 2.828.299.588.77.882 1.414.882zm8.394 1.414c-1.185 0-2.09-.434-2.716-1.302-.616-.877-.924-2.151-.924-3.822 0-1.643.308-2.898.924-3.766.626-.868 1.531-1.302 2.716-1.302s2.086.434 2.702 1.302c.626.859.938 2.114.938 3.766 0 1.661-.312 2.931-.938 3.808-.616.877-1.516 1.316-2.702 1.316zm0-1.414c.644 0 1.111-.294 1.4-.882.299-.597.448-1.54.448-2.828 0-1.269-.149-2.193-.448-2.772-.289-.588-.756-.882-1.4-.882s-1.115.294-1.414.882c-.289.579-.434 1.503-.434 2.772 0 1.288.145 2.231.434 2.828.299.588.77.882 1.414.882zM199.63 111.706c.205.364.457.705.756 1.022a10.99 10.99 0 0 0 1.05.966l-1.218.98c-.448-.317-.873-.7-1.274-1.148a9.05 9.05 0 0 1-1.036-1.414 4.23 4.23 0 0 1-.406.014c-.961 0-1.801-.205-2.52-.616a4.29 4.29 0 0 1-1.652-1.778c-.383-.775-.574-1.685-.574-2.73 0-1.036.191-1.937.574-2.702.383-.775.929-1.367 1.638-1.778.719-.411 1.563-.616 2.534-.616s1.811.205 2.52.616a3.98 3.98 0 0 1 1.638 1.778c.383.765.574 1.666.574 2.702 0 1.139-.229 2.114-.686 2.926-.448.812-1.087 1.405-1.918 1.778zm-5.054-4.704c0 1.185.257 2.095.77 2.73s1.232.952 2.156.952 1.643-.317 2.156-.952.77-1.545.77-2.73c0-1.176-.257-2.077-.77-2.702-.513-.635-1.232-.952-2.156-.952s-1.643.313-2.156.938-.77 1.531-.77 2.716zm11.608-.756v3.164c0 .831.387 1.246 1.162 1.246.215 0 .448-.037.7-.112v1.386c-.308.112-.681.168-1.12.168-.803 0-1.419-.224-1.848-.672s-.644-1.092-.644-1.932v-3.248h-1.358v-1.316h1.358v-1.722l1.75-.588v2.31h1.876v1.316h-1.876zm9.894-1.316l-3.29 7.546c-.374.877-.85 1.517-1.428 1.918s-1.293.667-2.142.798l-.392-1.344c.662-.149 1.157-.341 1.484-.574.336-.224.606-.56.812-1.008l.224-.518-2.94-6.818h1.834l2.03 5.082 2.072-5.082h1.736zm2.14 5.11V112h-1.96v-1.96h1.96zm38.86-8.008h4.326c1.073 0 1.909.261 2.506.784.597.513.896 1.218.896 2.114s-.303 1.605-.91 2.128c-.597.523-1.428.784-2.492.784h-2.52V112h-1.806v-9.968zm4.116 4.41c.625 0 1.097-.126 1.414-.378.327-.261.49-.635.49-1.12 0-.495-.159-.868-.476-1.12-.317-.261-.793-.392-1.428-.392h-2.31v3.01h2.31zm8.754-1.68c.27 0 .504.037.7.112l-.014 1.596a2.44 2.44 0 0 0-.924-.182c-.598 0-1.055.173-1.372.518-.308.345-.462.803-.462 1.372V112h-1.736v-5.068c0-.747-.038-1.414-.112-2.002h1.638l.14 1.246a2.1 2.1 0 0 1 .84-1.05c.382-.243.816-.364 1.302-.364zm1.674.168h1.736V112h-1.736v-7.07zm1.834-3.206v1.722h-1.946v-1.722h1.946zm5.022 10.388c-.737 0-1.376-.149-1.918-.448a3.06 3.06 0 0 1-1.246-1.26c-.289-.551-.434-1.195-.434-1.932s.15-1.386.448-1.946c.308-.56.738-.994 1.288-1.302.56-.317 1.204-.476 1.932-.476a4.48 4.48 0 0 1 1.456.238c.476.159.854.378 1.134.658l-.49 1.232a3.24 3.24 0 0 0-.952-.546 2.72 2.72 0 0 0-.994-.196c-.634 0-1.129.201-1.484.602-.354.392-.532.961-.532 1.708s.173 1.316.518 1.708c.355.392.854.588 1.498.588a2.72 2.72 0 0 0 .994-.196c.336-.131.654-.317.952-.56l.49 1.232c-.298.28-.686.499-1.162.658s-.975.238-1.498.238zm10.023-3.556h-4.872c.038.756.224 1.316.56 1.68.346.355.854.532 1.526.532.775 0 1.494-.252 2.156-.756l.504 1.204c-.336.271-.751.49-1.246.658-.485.159-.98.238-1.484.238-1.157 0-2.067-.327-2.73-.98s-.994-1.549-.994-2.688c0-.719.145-1.358.434-1.918a3.16 3.16 0 0 1 1.218-1.302c.523-.317 1.116-.476 1.778-.476.971 0 1.736.317 2.296.952.57.625.854 1.489.854 2.59v.266zm-3.108-2.548c-.466 0-.849.14-1.148.42-.289.271-.476.667-.56 1.19h3.29c-.056-.532-.219-.933-.49-1.204-.261-.271-.625-.406-1.092-.406z" fill="#000"/><path d="M115.31 376.968V381h-1.148v-4.046l-3.92-5.922h1.344l3.164 4.9 3.164-4.9h1.316l-3.92 5.936zm6.612 4.13c-.663 0-1.246-.149-1.75-.448s-.896-.723-1.176-1.274c-.271-.551-.406-1.195-.406-1.932s.135-1.381.406-1.932c.28-.551.672-.975 1.176-1.274s1.087-.448 1.75-.448 1.246.149 1.75.448.891.723 1.162 1.274c.28.551.42 1.195.42 1.932s-.14 1.381-.42 1.932c-.271.551-.658.975-1.162 1.274s-1.087.448-1.75.448zm0-.938c.7 0 1.237-.229 1.61-.686.373-.467.56-1.143.56-2.03 0-.859-.191-1.521-.574-1.988-.383-.476-.915-.714-1.596-.714-.691 0-1.227.238-1.61.714-.383.467-.574 1.129-.574 1.988 0 .887.187 1.563.56 2.03.383.457.924.686 1.624.686zm10.994-6.202V381h-1.106v-1.218c-.224.429-.537.756-.938.98a2.74 2.74 0 0 1-1.358.336c-.831 0-1.461-.233-1.89-.7s-.644-1.157-.644-2.072v-4.368h1.134v4.34c0 .635.13 1.101.392 1.4s.658.448 1.19.448c.625 0 1.129-.201 1.512-.602.382-.411.574-.947.574-1.61v-3.976h1.134zm5.462-.168a2.34 2.34 0 0 1 .644.084l-.028 1.036c-.215-.075-.462-.112-.742-.112-.682 0-1.19.215-1.526.644-.327.42-.49.933-.49 1.54V381h-1.134v-5.068a15.9 15.9 0 0 0-.112-1.974h1.078l.112 1.302a2.14 2.14 0 0 1 .854-1.092 2.43 2.43 0 0 1 1.344-.378zm11.718.168v6.986c0 1.045-.27 1.834-.812 2.366-.532.541-1.32.812-2.366.812-1.073 0-1.997-.243-2.772-.728l.196-.924c.448.252.868.434 1.26.546.402.112.84.168 1.316.168.682 0 1.195-.182 1.54-.546.346-.355.518-.887.518-1.596v-1.666a2.41 2.41 0 0 1-.952 1.05c-.41.243-.9.364-1.47.364-.616 0-1.166-.145-1.652-.434a2.9 2.9 0 0 1-1.106-1.232c-.261-.532-.392-1.143-.392-1.834s.131-1.302.392-1.834a2.9 2.9 0 0 1 1.106-1.232c.486-.289 1.036-.434 1.652-.434.56 0 1.046.121 1.456.364a2.34 2.34 0 0 1 .952 1.022v-1.218h1.134zm-3.318 5.88c.682 0 1.214-.224 1.596-.672.392-.457.588-1.083.588-1.876s-.196-1.414-.588-1.862c-.382-.457-.914-.686-1.596-.686-.69 0-1.236.229-1.638.686-.392.448-.588 1.069-.588 1.862s.196 1.419.588 1.876c.402.448.948.672 1.638.672zm8.772-6.048a2.34 2.34 0 0 1 .644.084l-.028 1.036c-.215-.075-.462-.112-.742-.112-.682 0-1.19.215-1.526.644-.327.42-.49.933-.49 1.54V381h-1.134v-5.068a15.9 15.9 0 0 0-.112-1.974h1.078l.112 1.302a2.14 2.14 0 0 1 .854-1.092 2.43 2.43 0 0 1 1.344-.378zm4.571 7.308c-.662 0-1.246-.149-1.75-.448s-.896-.723-1.176-1.274c-.27-.551-.406-1.195-.406-1.932s.136-1.381.406-1.932c.28-.551.672-.975 1.176-1.274s1.088-.448 1.75-.448 1.246.149 1.75.448.892.723 1.162 1.274c.28.551.42 1.195.42 1.932s-.14 1.381-.42 1.932c-.27.551-.658.975-1.162 1.274s-1.087.448-1.75.448zm0-.938c.7 0 1.237-.229 1.61-.686.374-.467.56-1.143.56-2.03 0-.859-.191-1.521-.574-1.988-.382-.476-.914-.714-1.596-.714-.69 0-1.227.238-1.61.714-.382.467-.574 1.129-.574 1.988 0 .887.187 1.563.56 2.03.383.457.924.686 1.624.686zm7.48.938c-1.185 0-2.123-.303-2.814-.91l.378-.84a3.91 3.91 0 0 0 1.162.644c.392.131.831.196 1.316.196.532 0 .933-.089 1.204-.266.28-.187.42-.453.42-.798 0-.28-.093-.504-.28-.672s-.495-.299-.924-.392l-1.19-.28c-.588-.131-1.045-.364-1.372-.7-.317-.336-.476-.737-.476-1.204 0-.616.247-1.115.742-1.498.495-.392 1.148-.588 1.96-.588.495 0 .961.079 1.4.238s.807.387 1.106.686l-.378.826c-.663-.551-1.372-.826-2.128-.826-.504 0-.896.098-1.176.294a.91.91 0 0 0-.406.798c0 .289.084.518.252.686.177.168.457.299.84.392l1.19.294c.653.149 1.139.383 1.456.7.317.308.476.714.476 1.218 0 .607-.247 1.092-.742 1.456s-1.167.546-2.016.546zm6.945 0c-1.185 0-2.123-.303-2.814-.91l.378-.84a3.91 3.91 0 0 0 1.162.644c.392.131.831.196 1.316.196.532 0 .934-.089 1.204-.266.28-.187.42-.453.42-.798 0-.28-.093-.504-.28-.672s-.494-.299-.924-.392l-1.19-.28c-.588-.131-1.045-.364-1.372-.7-.317-.336-.476-.737-.476-1.204 0-.616.248-1.115.742-1.498.495-.392 1.148-.588 1.96-.588.495 0 .962.079 1.4.238s.808.387 1.106.686l-.378.826c-.662-.551-1.372-.826-2.128-.826-.504 0-.896.098-1.176.294-.27.187-.406.453-.406.798 0 .289.084.518.252.686.178.168.458.299.84.392l1.19.294c.654.149 1.139.383 1.456.7.318.308.476.714.476 1.218 0 .607-.247 1.092-.742 1.456s-1.166.546-2.016.546zm11.73-7.308c.616 0 1.162.154 1.638.462s.845.742 1.106 1.302c.261.551.392 1.19.392 1.918s-.131 1.367-.392 1.918c-.261.541-.63.961-1.106 1.26-.467.299-1.013.448-1.638.448-.551 0-1.031-.121-1.442-.364s-.723-.588-.938-1.036v4.326h-1.134v-8.092a15.71 15.71 0 0 0-.112-1.974h1.078l.112 1.358c.196-.485.504-.859.924-1.12.429-.271.933-.406 1.512-.406zm-.21 6.37c.691 0 1.223-.233 1.596-.7.383-.467.574-1.129.574-1.988s-.191-1.526-.574-2.002c-.383-.485-.915-.728-1.596-.728-.7 0-1.237.233-1.61.7s-.56 1.134-.56 2.002.187 1.54.56 2.016c.373.467.91.7 1.61.7zm8.366-6.37c.234 0 .448.028.644.084l-.028 1.036c-.214-.075-.462-.112-.742-.112-.681 0-1.19.215-1.526.644-.326.42-.49.933-.49 1.54V381h-1.134v-5.068a15.71 15.71 0 0 0-.112-1.974h1.078l.112 1.302c.178-.476.462-.84.854-1.092a2.43 2.43 0 0 1 1.344-.378zm1.797.168h1.134V381h-1.134v-7.042zm1.274-2.982v1.288h-1.386v-1.288h1.386zm5.016 10.122c-.682 0-1.279-.149-1.792-.448-.504-.299-.896-.719-1.176-1.26-.271-.551-.406-1.19-.406-1.918s.14-1.367.42-1.918a3.09 3.09 0 0 1 1.19-1.302c.522-.308 1.129-.462 1.82-.462.476 0 .933.084 1.372.252.448.159.816.383 1.106.672l-.378.84a4.1 4.1 0 0 0-1.036-.616c-.327-.131-.663-.196-1.008-.196-.719 0-1.284.243-1.694.728-.411.476-.616 1.143-.616 2.002 0 .849.2 1.512.602 1.988.41.467.98.7 1.708.7.345 0 .681-.065 1.008-.196a4.1 4.1 0 0 0 1.036-.616l.378.84c-.299.28-.677.504-1.134.672-.448.159-.915.238-1.4.238zm9.871-3.654h-5.166c.01.896.215 1.573.616 2.03.411.457 1.004.686 1.778.686.822 0 1.578-.275 2.268-.826l.378.826c-.308.289-.704.518-1.19.686-.476.168-.966.252-1.47.252-1.101 0-1.964-.322-2.59-.966-.625-.653-.938-1.545-.938-2.674 0-.719.14-1.353.42-1.904.28-.56.672-.994 1.176-1.302s1.078-.462 1.722-.462c.934 0 1.666.308 2.198.924.532.607.798 1.447.798 2.52v.21zm-2.982-2.772c-.588 0-1.068.177-1.442.532-.364.355-.597.854-.7 1.498h4.102c-.056-.663-.252-1.167-.588-1.512-.326-.345-.784-.518-1.372-.518zm19.05-.714L225.854 381h-1.092l-2.016-5.502-2.002 5.502h-1.092l-2.604-7.042h1.19l1.988 5.684 2.058-5.684h.994l2.03 5.698 2.03-5.698h1.12zm1.472 0h1.134V381h-1.134v-7.042zm1.274-2.982v1.288h-1.386v-1.288h1.386zm2.062-.28h1.134V381h-1.134v-10.304zm3.336 0h1.134V381h-1.134v-10.304zm10.5 3.094c.616 0 1.162.149 1.638.448s.845.723 1.106 1.274c.261.541.392 1.176.392 1.904s-.131 1.372-.392 1.932c-.261.551-.63.98-1.106 1.288s-1.022.462-1.638.462c-.551 0-1.031-.121-1.442-.364s-.723-.588-.938-1.036V381h-1.134v-10.304h1.134v4.508c.205-.457.513-.807.924-1.05.42-.243.905-.364 1.456-.364zm-.21 6.37c.681 0 1.213-.238 1.596-.714.383-.485.574-1.162.574-2.03 0-.849-.191-1.507-.574-1.974-.373-.467-.905-.7-1.596-.7-.7 0-1.237.233-1.61.7s-.56 1.134-.56 2.002.187 1.54.56 2.016c.373.467.91.7 1.61.7zm10.985-2.716h-5.166c.009.896.214 1.573.616 2.03.41.457 1.003.686 1.778.686.821 0 1.577-.275 2.268-.826l.378.826c-.308.289-.705.518-1.19.686-.476.168-.966.252-1.47.252-1.102 0-1.965-.322-2.59-.966-.626-.653-.938-1.545-.938-2.674 0-.719.14-1.353.42-1.904.28-.56.672-.994 1.176-1.302s1.078-.462 1.722-.462c.933 0 1.666.308 2.198.924.532.607.798 1.447.798 2.52v.21zm-2.982-2.772c-.588 0-1.069.177-1.442.532-.364.355-.598.854-.7 1.498h4.102c-.056-.663-.252-1.167-.588-1.512-.327-.345-.784-.518-1.372-.518zM135.289 428h-4.488l-3.624-5.448c-.256-.416-.544-.712-.864-.888-.304-.192-.696-.288-1.176-.288h-3.432v-2.904h5.04c1.504 0 2.432-.544 2.784-1.632h-7.824v-2.208h7.776c-.368-1.008-1.28-1.512-2.736-1.512h-5.04v-2.208h13.56v2.208h-2.856c.32.448.552.952.696 1.512h2.16v2.208h-2.064c-.144 1.088-.56 1.992-1.248 2.712s-1.584 1.208-2.688 1.464c.528.112.992.312 1.392.6.416.288.792.688 1.128 1.2l3.504 5.184zm20.821-11.744c1.472.384 2.613 1.056 3.424 2.016s1.216 2.133 1.216 3.52c0 1.323-.373 2.475-1.12 3.456-.725.96-1.749 1.707-3.072 2.24-1.323.512-2.837.768-4.544.768s-3.221-.256-4.544-.768c-1.323-.533-2.357-1.28-3.104-2.24-.725-.981-1.088-2.133-1.088-3.456 0-1.387.405-2.56 1.216-3.52.832-.981 1.973-1.653 3.424-2.016-1.28-.427-2.283-1.088-3.008-1.984s-1.088-1.952-1.088-3.168c0-1.237.352-2.325 1.056-3.264s1.675-1.653 2.912-2.144c1.259-.512 2.667-.768 4.224-.768s2.955.256 4.192.768c1.259.491 2.24 1.205 2.944 2.144s1.056 2.027 1.056 3.264-.373 2.315-1.12 3.232c-.725.917-1.717 1.557-2.976 1.92zm-4.096-7.488c-1.067 0-1.92.245-2.56.736-.619.491-.928 1.205-.928 2.144 0 .896.309 1.621.928 2.176.64.533 1.493.907 2.56 1.12 1.067-.213 1.909-.587 2.528-1.12.64-.555.96-1.28.96-2.176 0-.939-.32-1.653-.96-2.144-.619-.491-1.461-.736-2.528-.736zm0 15.648c1.259 0 2.251-.256 2.976-.768.747-.512 1.12-1.259 1.12-2.24 0-.917-.373-1.664-1.12-2.24-.725-.576-1.717-.96-2.976-1.152-1.259.192-2.261.576-3.008 1.152-.725.576-1.088 1.323-1.088 2.24 0 .981.363 1.728 1.088 2.24.747.512 1.749.768 3.008.768zm28.212-.576h-3.104V428h-4.896v-4.16h-9.568v-3.712l10.464-14.912h4v14.752h3.104v3.872zm-8-3.872V412.8l-4.992 7.168h4.992zm15.347 2.88v3.296c0 1.259-.224 2.389-.672 3.392-.427 1.024-1.163 2.048-2.208 3.072l-1.888-1.472c1.045-1.088 1.696-2.133 1.952-3.136h-2.4v-5.152h5.216zm11.191 5.44c-2.752 0-4.864-1.003-6.336-3.008-1.451-2.005-2.176-4.907-2.176-8.704 0-3.755.725-6.624 2.176-8.608 1.472-1.984 3.584-2.976 6.336-2.976s4.853.992 6.304 2.976c1.472 1.984 2.208 4.853 2.208 8.608 0 3.797-.736 6.699-2.208 8.704-1.451 2.005-3.552 3.008-6.304 3.008zm0-3.84c1.259 0 2.176-.619 2.752-1.856s.864-3.243.864-6.016c0-2.709-.288-4.672-.864-5.888-.576-1.237-1.493-1.856-2.752-1.856s-2.176.619-2.752 1.856c-.576 1.216-.864 3.179-.864 5.888 0 2.773.288 4.779.864 6.016s1.493 1.856 2.752 1.856zm19.188 3.84c-2.752 0-4.864-1.003-6.336-3.008-1.451-2.005-2.176-4.907-2.176-8.704 0-3.755.725-6.624 2.176-8.608 1.472-1.984 3.584-2.976 6.336-2.976s4.853.992 6.304 2.976c1.472 1.984 2.208 4.853 2.208 8.608 0 3.797-.736 6.699-2.208 8.704-1.451 2.005-3.552 3.008-6.304 3.008zm0-3.84c1.258 0 2.176-.619 2.752-1.856s.864-3.243.864-6.016c0-2.709-.288-4.672-.864-5.888-.576-1.237-1.494-1.856-2.752-1.856s-2.176.619-2.752 1.856c-.576 1.216-.864 3.179-.864 5.888 0 2.773.288 4.779.864 6.016s1.493 1.856 2.752 1.856zm19.187 3.84c-2.752 0-4.864-1.003-6.336-3.008-1.451-2.005-2.176-4.907-2.176-8.704 0-3.755.725-6.624 2.176-8.608 1.472-1.984 3.584-2.976 6.336-2.976s4.853.992 6.304 2.976c1.472 1.984 2.208 4.853 2.208 8.608 0 3.797-.736 6.699-2.208 8.704-1.451 2.005-3.552 3.008-6.304 3.008zm0-3.84c1.259 0 2.176-.619 2.752-1.856s.864-3.243.864-6.016c0-2.709-.288-4.672-.864-5.888-.576-1.237-1.493-1.856-2.752-1.856s-2.176.619-2.752 1.856c-.576 1.216-.864 3.179-.864 5.888 0 2.773.288 4.779.864 6.016s1.493 1.856 2.752 1.856z" fill="#fff"/><g class="C B"><rect x="64" y="129" width="112" height="18" rx="2"/><rect x="64" y="159" width="112" height="18" rx="2"/><rect x="256" y="129" width="48" height="18" rx="2"/><rect x="256" y="159" width="48" height="18" rx="2"/><rect x="192" y="129" width="48" height="18" rx="2"/><rect x="192" y="159" width="48" height="18" rx="2"/></g><defs><filter id="A" x="0" y="0" width="368" height="448" filterUnits="userSpaceOnUse" color-interpolation-filters="sRGB"><feFlood flood-opacity="0" result="A"/><feColorMatrix in="SourceAlpha" values="0 0 0 0 0 0 0 0 0 0 0 0 0 0 0 0 0 0 127 0"/><feOffset dy="4"/><feGaussianBlur stdDeviation="12"/><feColorMatrix values="0 0 0 0 0 0 0 0 0 0 0 0 0 0 0 0 0 0 0.06 0"/><feBlend in2="A"/><feBlend in="SourceGraphic"/></filter><linearGradient id="B" x1="12" y1="28" x2="349.49" y2="95.146" gradientUnits="userSpaceOnUse"><stop stop-color="#fff"/><stop offset="1" stop-color="#fff" stop-opacity=".4"/></linearGradient><linearGradient id="C" x1="64" y1="355" x2="307.217" y2="374.49" gradientUnits="userSpaceOnUse"><stop stop-color="#fff"/><stop offset="1" stop-color="#fff" stop-opacity=".4"/></linearGradient></defs></svg>