<svg width="560" height="381" fill="none" xmlns="http://www.w3.org/2000/svg"><path d="M0 213l287.97 167.44 271.95-159.87L287.97 61.75 0 213.01z" fill="#000" fill-opacity=".08"/><path d="M0 203.02l287.97 167.41 271.95-159.85L287.97 51.74 0 203.02z" fill="#0B70E7"/><path d="M0 203.02l287.97 167.41v4.13L0 207.66v-4.64z" fill="#0557B9"/><path d="M559.92 210.58L287.98 370.43v4.13l271.96-159.73-.02-4.25z" fill="#075EC6"/><path opacity=".7" d="M80.97 216.64l.28-.47 9.15 5.3 30.6-17.7-8.97-5.18.28-.48 9.23 5.35 30.59-17.69-9.03-5.23.27-.47 9.3 5.4 30.6-17.7-9.11-5.27.27-.48 9.39 5.44 30.58-17.7-9.18-5.3.28-.49 9.45 5.48 30.6-17.69-9.27-5.35.28-.48 9.53 5.52 30.59-17.69-9.33-5.4.27-.48 9.6 5.56 9.62-5.55.27.47-9.33 5.4 30.57 17.71 9.53-5.5.27.47-9.25 5.35 30.57 17.71 9.46-5.47.27.48-9.18 5.31 30.57 17.71 9.38-5.42.27.47-9.1 5.27 30.57 17.71 9.31-5.38.28.47-9.05 5.23 30.58 17.72 9.23-5.35.28.48-8.97 5.19 30.57 17.7 9.17-5.29.27.48-8.88 5.14 8.88 5.14-.27.48-9.16-5.3-30.6 17.68 8.96 5.19-.27.47-9.23-5.34-30.59 17.68 9.04 5.24-.28.47-9.31-5.4-30.58 17.7 9.1 5.27-.27.48-9.38-5.44-30.6 17.69 9.19 5.31-.28.48-9.45-5.47-30.59 17.69 9.26 5.36-.28.47-9.53-5.52-30.58 17.68 9.32 5.42-.27.46-9.6-5.55-9.62 5.55-.27-.47 9.33-5.4L246 312.25l-9.53 5.52-.27-.48 9.26-5.36-30.58-17.7-9.46 5.47-.27-.49 9.19-5.3-30.58-17.72-9.38 5.43-.28-.48 9.12-5.27-30.59-17.7-9.3 5.37-.28-.47 9.04-5.24-30.58-17.7-9.23 5.34-.28-.47 8.97-5.19-30.58-17.72-9.16 5.3-.27-.47 8.89-5.14-8.9-5.14h.02zm41.11-12.86l30.58 17.71 30.59-17.68-30.58-17.71-30.59 17.68zm155.64 18.09l30.57 17.7 30.6-17.68-30.58-17.7-30.59 17.68zm30.04-18l-30.57-17.73-30.59 17.69 30.58 17.72 30.58-17.69zm-30.58 18.31l-30.6 17.69 30.58 17.71 30.59-17.68-30.57-17.72zm-.55-.31l-30.57-17.72-30.6 17.69 30.58 17.71 30.59-17.68zm-31.12-18.04l-30.57-17.71-30.6 17.69 30.58 17.7 30.58-17.68h.01zm.55-.31l30.58-17.69-30.57-17.71-30.59 17.69 30.58 17.7zm31.13-18.01l30.59-17.69-30.57-17.7-30.6 17.68 30.58 17.71zm.55.32l30.57 17.71 30.59-17.69-30.57-17.7-30.6 17.68zm31.12 18.03l30.57 17.71 30.59-17.69-30.57-17.7-30.6 17.68zm31.12 18.03l30.57 17.72 30.59-17.69-30.57-17.71-30.59 17.68zm-.55.31l-30.59 17.7 30.58 17.7L370 239.93l-30.57-17.7v-.02zm-31.13 18.01l-30.6 17.69 30.58 17.72 30.59-17.7-30.57-17.7zm-31.14 18l-30.59 17.7 30.57 17.7 30.6-17.68-30.58-17.71zm-.55-.3l-30.57-17.73-30.59 17.69 30.57 17.7 30.6-17.68v.01zm-31.12-18.04l-30.57-17.71-30.59 17.68 30.57 17.71 30.59-17.68zm-31.12-18.03l-30.57-17.71-30.59 17.68 30.57 17.71 30.59-17.68zm-61.14-36.06l30.57 17.7 30.58-17.68-30.57-17.71-30.58 17.69zm31.13-18.01l30.58 17.72 30.58-17.69-30.58-17.72-30.58 17.69zm31.14-18l30.57 17.7 30.6-17.68-30.58-17.7-30.6 17.68zm61.72-35.7l-30.59 17.7 30.58 17.71 30.59-17.69-30.58-17.71zm31.12 18.04l-30.59 17.68 30.58 17.72 30.59-17.69-30.58-17.71zm31.12 18.03l-30.59 17.68 30.58 17.72 30.59-17.69-30.58-17.71zm31.12 18.04L340 185.85l30.57 17.72 30.58-17.69-30.57-17.7zm31.12 18.03l-30.58 17.68 30.57 17.71 30.58-17.69-30.57-17.7zm61.7 35.74l-30.58-17.71-30.58 17.68 30.57 17.71 30.6-17.68h-.02zm-31.14 18l-30.57-17.71-30.59 17.68 30.58 17.72 30.58-17.69zm-31.14 18l-30.57-17.7-30.58 17.68 30.57 17.7 30.58-17.68zm-31.13 18l-30.57-17.7-30.6 17.68 30.58 17.71 30.59-17.68zm-31.14 18l-30.57-17.7-30.59 17.69 30.57 17.7 30.6-17.68zm-61.72 35.7l30.59-17.69-30.58-17.71-30.58 17.7 30.57 17.7zM246 311.62l30.59-17.69-30.58-17.71-30.59 17.68 30.58 17.72zm-31.12-18.03l30.58-17.69-30.57-17.71-30.59 17.68 30.58 17.72zm-31.12-18.03l30.58-17.69-30.57-17.71-30.59 17.68 30.58 17.72zm-31.12-18.03l30.58-17.69-30.57-17.71-30.6 17.68 30.58 17.72zm-31.12-18.04l30.57-17.68-30.56-17.72-30.6 17.7 30.58 17.7h.01z" fill="#C4D6EE"/><path opacity=".5" d="M281.57 292.57l180.3-113.63-73.44-46.21-114.31 79.84-51.88 64.81 59.33 15.19z" fill="#0F054C"/><path d="M129.52 222.43v12.1a.46.46 0 00.28.43L261 310.43a1.85 1.85 0 001.66-.08l21.38-12.45a.7.7 0 00.4-.47v-12.21l-10.37 5.94L153 221.53a1.79 1.79 0 00-1.67.07l-7.33 4.27-14.5-3.44z" fill="url(#paint0_linear)"/><path d="M152.92 209.32l131.2 75.47c.42.24.37.67-.12.97l-21.38 12.45a1.85 1.85 0 01-1.67.06l-131.19-75.46c-.43-.25-.37-.68.12-.96l21.38-12.45a1.84 1.84 0 011.66-.08z" fill="#D7E7FF"/><path opacity=".6" d="M157.67 227.5l103.08 58.22c.8-4.21 1.98-8.34 3.53-12.34l-102.95-59.21a70.38 70.38 0 00-3.66 13.33z" fill="#283292"/><path d="M148.38 216.3l123.68 71.15c.29.18.26.48-.08.67l-5.37 3.12a1.27 1.27 0 01-1.15 0l-123.7-71.15c-.3-.17-.25-.46.09-.67l5.37-3.12a1.28 1.28 0 011.16 0z" fill="#000A67"/><path d="M141.78 220.14l2.55 1.44 2.9-1.68a1.27 1.27 0 011.13 0l121.15 69.66 2.55-1.4c.34-.18.37-.48.07-.66l-123.7-71.15a1.27 1.27 0 00-1.14 0l-5.36 3.13c-.4.2-.44.5-.15.66z" fill="#283292"/><path opacity=".96" d="M460.22 93.74l-102.9-59.2c0 18.49-12.84 41-28.78 50.28l-141.82 82.6c-18.74 10.9-33.89 37.37-33.82 59.1l102.9 59.2c-.06-21.7 15.08-48.2 33.83-59.1l141.81-82.63c15.94-9.28 28.83-31.79 28.78-50.28v.03z" fill="#F0F7FF"/><path opacity=".8" d="M152.88 226.52l102.91 59.2c0-.96 0-1.92.09-2.9l-102.9-59.19c-.07.97-.11 1.93-.1 2.89z" fill="#000C79"/><g opacity=".32" fill="#03247A"><path opacity=".32" d="M301.9 182.13l23.31 13.4-2.25 1.31-23.3-13.4 2.24-1.31zM289.94 175.25l8.4 4.83-2.25 1.3-8.38-4.82 2.24-1.3zM280.68 169.92l5.7 3.28-2.24 1.3-5.7-3.28 2.24-1.3zM317.63 185.24l12.7 7.31-2.24 1.3-12.7-7.3 2.24-1.3zM298.5 174.25l15.56 8.95-2.24 1.3-15.56-8.95 2.24-1.3zM289.23 168.91l5.72 3.28-2.25 1.32-5.7-3.3 2.23-1.3zM280.42 163.85l5.7 3.28-2.24 1.3-5.7-3.28 2.24-1.3zM326.27 184.29l9.19 5.28-2.24 1.3-9.2-5.28 2.25-1.3zM319.56 180.42l3.15 1.81-2.24 1.3-3.15-1.8 2.24-1.31zM310.3 175.1l5.7 3.28-2.24 1.3-5.7-3.28 2.24-1.3zM306.66 167.08l33.91 19.5-2.24 1.3-33.91-19.5 2.24-1.3zM294.7 160.2l8.4 4.82-2.25 1.31-8.39-4.83 2.25-1.3zM336.51 178.32l9.2 5.28-2.25 1.31-9.2-5.29 2.25-1.3zM314.94 165.91l18 10.35-2.23 1.32-18-10.36 2.23-1.3zM305.68 160.58l5.7 3.28-2.24 1.3-5.7-3.28 2.24-1.3zM332.02 169.8l18.8 10.81-2.24 1.32-18.8-10.82 2.24-1.3zM314.87 159.93l13.59 7.82-2.24 1.32-13.6-7.84 2.25-1.3zM302.11 152.6l9.2 5.28-2.25 1.31-9.19-5.3 2.24-1.3zM349.6 173.98l6.35 3.66-2.25 1.3-6.34-3.65 2.24-1.31zM337.64 167.1l8.4 4.84-2.25 1.3-8.4-4.82 2.25-1.32zM320.55 157.28l13.53 7.78-2.25 1.3-13.52-7.78 2.24-1.3zM341.62 163.47l19.44 11.19-2.24 1.3-19.46-11.19 2.26-1.3zM319.83 150.93l18.22 10.48-2.24 1.32-18.22-10.5 2.24-1.3zM310.56 145.6l5.7 3.28-2.23 1.3-5.7-3.28 2.23-1.3zM301.67 140.49l5.7 3.28-2.24 1.3-5.7-3.28 2.24-1.3zM354.53 164.97l11.66 6.7-2.24 1.3-11.66-6.7 2.24-1.3zM254.62 154.93l-16.17-9.3-2.24 1.31 16.16 9.3 2.25-1.31zM256.28 149.95l-12.71-7.3-2.24 1.3 12.7 7.3 2.25-1.3zM257.89 144.95l-9.19-5.3-2.24 1.32 9.19 5.28 2.24-1.3zM267.2 144.37l-13.37-7.68-2.25 1.3 13.37 7.7 2.24-1.32zM268.13 138.98l-9.19-5.28-2.24 1.3 9.2 5.28 2.23-1.3zM275.72 137.41l-11.65-6.7-2.25 1.3 11.66 6.72 2.24-1.32zM275.54 131.4l-6.35-3.67-2.24 1.31 6.35 3.65 2.24-1.3zM286.61 131.82l-12.3-7.08-2.24 1.32 12.3 7.08 2.24-1.32zM291.1 128.47l-11.67-6.7-2.24 1.3 11.66 6.7 2.24-1.3zM346.02 160.06l4.95 2.86-2.24 1.3-4.95-2.85 2.24-1.31zM331.3 151.6l11.15 6.42-2.24 1.3-11.16-6.42 2.24-1.3zM345.23 128.71l18.82 10.83-2.24 1.3L343 130.01l2.24-1.3zM332.34 121.3l7.42 4.26-2.25 1.3-7.41-4.26 2.24-1.3z"/></g><path d="M224.39 184.59c7.42 4.32 13.5.82 13.5-7.78v-83.1c0-8.6-6.1-19.15-13.52-23.46L157.79 31.7c-7.43-4.3-13.5-.79-13.5 7.81v82.77c0 8.6 6.06 19.17 13.48 23.5l66.62 38.82z" fill="url(#paint1_linear)"/><path opacity=".38" d="M341.8 216.35l33.96 19.35c1.12.67 2.51 3.04 2.51 4.3v21.78c0 1.77-.94 2.33-2.51 1.44l-13.6-7.74-3.41 4.04-3.35-7.9-13.6-7.74c-1.12-.67-2.52-3.04-2.52-4.31V217.8c-.05-1.77.95-2.34 2.52-1.44zM401.07 215.57l33.96 19.35c1.12.66 2.52 3.03 2.52 4.3V261c0 1.77-.94 2.33-2.52 1.44l-13.59-7.74-3.42 4.04-3.35-7.9-13.6-7.74c-1.12-.67-2.51-3.05-2.51-4.31V217c-.06-1.76.95-2.33 2.51-1.43v-.01zM416.67 167.87l33.96 19.35c1.12.67 2.52 3.04 2.52 4.31v21.78c0 1.76-.95 2.32-2.52 1.43L437.04 207l-3.42 4.04-3.35-7.9-13.6-7.74c-1.12-.66-2.52-3.04-2.52-4.3v-21.78c-.05-1.77.96-2.33 2.52-1.44z" fill="#041F59"/><path d="M334.78 221.82l33.96 19.35c1.11.67 2.51 3.04 2.51 4.31v21.77c0 1.77-.94 2.33-2.51 1.44l-13.6-7.74-3.41 4.04-3.36-7.9-13.6-7.74c-1.11-.66-2.51-3.04-2.51-4.3v-21.78c-.06-1.77.95-2.34 2.52-1.44z" fill="url(#paint2_linear)"/><path d="M394.05 221.04l33.96 19.35c1.12.67 2.52 3.04 2.52 4.31v21.78c0 1.76-.95 2.32-2.52 1.43l-13.59-7.74-3.42 4.04-3.35-7.9-13.6-7.74c-1.12-.66-2.52-3.04-2.52-4.3v-21.78c-.05-1.77.96-2.33 2.52-1.44z" fill="url(#paint3_linear)"/><path d="M409.65 173.35l33.96 19.35c1.12.66 2.52 3.03 2.52 4.3v21.78c0 1.77-.95 2.32-2.52 1.44l-13.59-7.74-3.42 4.04-3.35-7.9-13.6-7.75c-1.12-.66-2.52-3.04-2.52-4.3v-21.78c-.05-1.76.96-2.33 2.52-1.43v-.01z" fill="url(#paint4_linear)"/><rect width="80.38" height="27.91" rx="1" transform="matrix(.87197 .48955 0 1 155.99 101)" fill="#152F6A"/><g opacity=".66" fill="#fff"><rect width="19.05" height="4.45" rx="1" transform="matrix(.87197 .48955 0 1 155.99 58)"/><rect width="24.13" height="4.45" rx="1" transform="matrix(.87197 .48955 0 1 155.99 73.27)"/><rect width="51.44" height="4.45" rx="1" transform="matrix(.87197 .48955 0 1 180.9 71.99)"/><rect width="51.44" height="4.45" rx="1" transform="matrix(.87197 .48955 0 1 180.9 87.26)"/><rect width="3.18" height="4.45" rx="1" transform="matrix(.87197 .48955 0 1 155.99 65.63)"/><rect width="16.51" height="4.45" rx="1" transform="matrix(.87197 .48955 0 1 159.86 67.8)"/><rect width="13.34" height="4.45" rx="1" transform="matrix(.87197 .48955 0 1 155.99 80.9)"/><rect width="51.44" height="4.45" rx="1" transform="matrix(.87197 .48955 0 1 180.9 79.62)"/><rect width="51.44" height="4.45" rx="1" transform="matrix(.87197 .48955 0 1 180.9 94.9)"/></g><path opacity=".9" d="M340.42 245.1a7.85 7.85 0 01-3.67-4.25 7.9 7.9 0 01-.5-2.77c0-.94.17-1.67.5-2.2.34-.53.83-.82 1.45-.88.63-.05 1.37.15 2.22.61a7.86 7.86 0 012.75 2.51l-.65 1.38a6.52 6.52 0 00-2.06-1.94c-.65-.35-1.15-.39-1.5-.1-.35.27-.53.88-.53 1.8 0 .94.18 1.74.52 2.4.36.68.86 1.19 1.51 1.54.71.39 1.4.49 2.06.3l.65 2.09c-.3.14-.7.17-1.21.08-.5-.09-1.01-.28-1.54-.57zm10.9.6v4.64a5.3 5.3 0 01-1.46-.28 9.27 9.27 0 01-3.95-2.54 7.83 7.83 0 01-2.02-5.29c0-.95.17-1.69.52-2.2a1.8 1.8 0 011.49-.85c.64-.04 1.38.17 2.24.63a9.05 9.05 0 012.93 2.58l-.67 1.36a8.94 8.94 0 00-1.09-1.19 5.52 5.52 0 00-1.1-.8c-.73-.4-1.27-.45-1.63-.18-.35.27-.52.88-.52 1.83 0 1 .18 1.82.55 2.5.37.68.94 1.23 1.7 1.65.37.2.72.34 1.08.45v-1.72l-1.41-.76v-1.66l3.34 1.82zm4.3 7.68a10.71 10.71 0 01-3.25-2.78l.67-1.37c.4.5.82.95 1.26 1.35.45.4.9.71 1.35.95.45.25.8.37 1.05.37.24-.02.36-.15.36-.41 0-.24-.1-.49-.33-.76a8.1 8.1 0 00-1.24-1.13 12.9 12.9 0 01-1.8-1.61c-.42-.5-.72-.96-.9-1.4-.16-.44-.25-.9-.25-1.4 0-.56.14-1 .42-1.3.29-.3.68-.44 1.2-.41.5.02 1.08.2 1.74.56a9.08 9.08 0 013 2.65l-.66 1.37c-.36-.48-.74-.9-1.13-1.27-.4-.37-.8-.66-1.19-.88-.39-.21-.7-.3-.94-.25-.23.04-.35.2-.35.49 0 .15.04.3.13.45.08.15.24.34.47.57.22.22.57.51 1.02.87.74.59 1.32 1.12 1.74 1.6.43.5.72.96.9 1.4.18.43.26.89.26 1.36 0 .9-.3 1.45-.92 1.63-.62.18-1.49-.04-2.6-.65zm6.39-3.92l-2.42-1.32v-1.97l7.01 3.81v1.98l-2.42-1.32v7.28l-2.17-1.18v-7.28zM398.1 234.08l2.15 1.17v9.26l-2.15-1.17v-9.26zm10.83 9.93v4.64a5.3 5.3 0 01-1.46-.28 9.42 9.42 0 01-1.65-.71 8.48 8.48 0 01-3.8-4.28 7.8 7.8 0 01-.52-2.84c0-.95.17-1.69.52-2.2a1.8 1.8 0 011.49-.85c.63-.04 1.38.17 2.23.63a9.1 9.1 0 012.94 2.58l-.68 1.36a8.9 8.9 0 00-1.08-1.19 5.52 5.52 0 00-1.1-.8c-.73-.39-1.27-.45-1.63-.18-.35.27-.52.88-.52 1.84 0 .98.18 1.82.54 2.5.38.67.95 1.22 1.72 1.64.35.2.71.34 1.07.45v-1.71l-1.42-.77v-1.66l3.35 1.83zm4.3 7.68a10.65 10.65 0 01-3.25-2.78l.67-1.37c.4.5.82.96 1.26 1.35.45.4.9.71 1.35.96.45.24.8.37 1.05.36.24-.02.36-.15.36-.41 0-.24-.1-.49-.33-.76a8.11 8.11 0 00-1.24-1.13c-.77-.59-1.37-1.13-1.8-1.61-.42-.5-.72-.96-.9-1.4a3.9 3.9 0 01-.25-1.4c0-.56.14-1 .42-1.29.29-.3.68-.45 1.2-.42.5.02 1.08.2 1.74.56a9.08 9.08 0 013 2.65l-.66 1.37c-.36-.48-.74-.9-1.13-1.27-.4-.37-.8-.66-1.19-.88-.39-.2-.7-.3-.93-.25-.24.04-.36.2-.36.49 0 .15.04.3.13.45.08.15.24.34.46.57.23.22.57.51 1.03.87a12.6 12.6 0 011.74 1.61c.42.48.72.95.9 1.39.18.43.26.89.26 1.36 0 .9-.3 1.45-.92 1.63-.62.18-1.49-.04-2.6-.65zm6.39-3.92l-2.42-1.32v-1.97l7 3.81v1.98l-2.41-1.32v7.28l-2.17-1.18v-7.28zM415.33 196.52a10.61 10.61 0 01-3.25-2.79l.67-1.36c.4.5.82.95 1.26 1.35.45.39.9.7 1.35.95.45.25.8.37 1.05.36.24-.01.36-.15.36-.4 0-.24-.1-.5-.33-.76a8.11 8.11 0 00-1.24-1.13c-.77-.6-1.37-1.13-1.8-1.62a3.9 3.9 0 01-1.15-2.8c0-.56.14-.99.42-1.28.29-.31.68-.45 1.2-.42.5.01 1.08.2 1.74.56a9.08 9.08 0 013 2.64l-.66 1.37c-.36-.48-.74-.9-1.13-1.26-.4-.37-.8-.67-1.19-.88-.39-.21-.7-.3-.94-.25-.23.03-.35.2-.35.48 0 .16.04.31.13.46.08.15.24.34.46.57.23.22.58.5 1.03.87a12.6 12.6 0 011.74 1.6c.43.49.73.95.9 1.4.17.43.26.88.26 1.36 0 .9-.3 1.44-.92 1.63-.62.17-1.49-.04-2.6-.65zm11.95 1.15v4.65a5.3 5.3 0 01-1.46-.28 9.42 9.42 0 01-1.65-.71 8.48 8.48 0 01-3.8-4.28 7.83 7.83 0 01-.53-2.84c0-.95.18-1.69.53-2.2a1.8 1.8 0 011.48-.85c.64-.04 1.39.17 2.24.63a9.05 9.05 0 012.94 2.58l-.68 1.36a8.95 8.95 0 00-1.08-1.2 5.5 5.5 0 00-1.11-.79c-.72-.4-1.26-.45-1.62-.18-.35.27-.53.88-.53 1.83 0 1 .19 1.82.55 2.5.37.68.94 1.23 1.71 1.65.36.2.72.34 1.08.45v-1.72l-1.42-.77v-1.65l3.35 1.82zm4.3 7.69a10.65 10.65 0 01-3.25-2.79l.67-1.36c.4.5.81.95 1.26 1.35.45.4.9.7 1.34.95.46.25.81.37 1.05.37.25-.02.37-.16.37-.41 0-.24-.11-.49-.33-.76a8.18 8.18 0 00-1.25-1.13c-.76-.6-1.36-1.13-1.79-1.61a3.9 3.9 0 01-1.15-2.8c0-.56.14-1 .42-1.3.28-.3.68-.44 1.19-.41.5.02 1.09.2 1.75.56a9.08 9.08 0 013 2.65l-.66 1.37c-.36-.48-.74-.9-1.13-1.27a5.8 5.8 0 00-1.2-.88c-.38-.21-.7-.3-.93-.25-.23.04-.35.2-.35.49 0 .15.04.3.12.45.09.15.24.34.47.57.23.22.57.51 1.03.87.74.58 1.32 1.12 1.74 1.6.42.5.72.95.9 1.4.17.43.26.88.26 1.36 0 .9-.3 1.45-.93 1.63-.61.18-1.48-.04-2.6-.65zm6.39-3.92l-2.42-1.32v-1.97l7 3.81v1.98l-2.41-1.32v7.28l-2.17-1.18v-7.28z" fill="#152F6A"/><defs><linearGradient id="paint0_linear" x1="286.57" y1="272" x2="144.61" y2="274.79" gradientUnits="userSpaceOnUse"><stop stop-color="#0B6CDE"/><stop offset=".04" stop-color="#3591FD"/><stop offset=".09" stop-color="#4E9FFF"/><stop offset=".14" stop-color="#82B7E8"/><stop offset=".19" stop-color="#A3D3F5"/><stop offset=".22" stop-color="#BCD7FF"/></linearGradient><linearGradient id="paint1_linear" x1="151.03" y1="36.11" x2="233.81" y2="183.95" gradientUnits="userSpaceOnUse"><stop offset="0" stop-color="#2AFFDE"/><stop offset="1" stop-color="#4C2AFF" stop-opacity=".7"/></linearGradient><linearGradient id="paint2_linear" x1="335.06" y1="223.32" x2="355.8" y2="273.98" gradientUnits="userSpaceOnUse"><stop offset="0" stop-color="#2AFFDE"/><stop offset="1" stop-color="#fff" stop-opacity=".7"/></linearGradient><linearGradient id="paint3_linear" x1="394.34" y1="222.54" x2="415.08" y2="273.2" gradientUnits="userSpaceOnUse"><stop offset="0" stop-color="#2AFFDE"/><stop offset="1" stop-color="#fff" stop-opacity=".7"/></linearGradient><linearGradient id="paint4_linear" x1="409.94" y1="174.84" x2="430.68" y2="225.5" gradientUnits="userSpaceOnUse"><stop offset="0" stop-color="#2AFFDE"/><stop offset="1" stop-color="#fff" stop-opacity=".7"/></linearGradient></defs></svg>