<svg width="562" height="462" fill="none" xmlns="http://www.w3.org/2000/svg"><path d="M562 293.14l-289 167.6L.08 300.71 273 141.7l289 151.43z" fill="#000" fill-opacity=".08"/><path d="M562 283.13l-289 167.6L.08 290.7 273 131.7l289 151.44z" fill="#F3F8FE"/><path d="M562 283.13l-289 167.6v4.13L562 287.8v-4.66z" fill="#D4E5FA"/><path d="M.08 290.7l272.91 160.03v4.14L.06 294.97l.02-4.27z" fill="#EAF2FC"/><path opacity=".7" d="M480.74 296.77l-.28-.47-9.19 5.3-30.7-17.7 9-5.2-.28-.47-9.26 5.35-30.7-17.7 9.06-5.25-.27-.47-9.34 5.4-30.7-17.71 9.14-5.28-.28-.47-9.41 5.44-30.7-17.7 9.22-5.33-.28-.48-9.49 5.48-30.7-17.7 9.3-5.37-.28-.47-9.57 5.52-30.7-17.7 9.37-5.42-.28-.47-9.63 5.56-9.65-5.55-.28.47 9.37 5.4-30.68 17.73-9.57-5.51-.27.47 9.3 5.37-30.7 17.72-9.49-5.47-.27.48 9.22 5.32-30.68 17.72-9.42-5.43-.27.48 9.14 5.28-30.68 17.72-9.35-5.38-.27.47 9.07 5.24-30.69 17.72-9.26-5.34-.28.48 9 5.19-30.68 17.72-9.2-5.3-.27.48 8.92 5.14-8.92 5.16.28.47 9.18-5.3 30.7 17.7-8.98 5.19.27.48 9.26-5.36 30.7 17.7-9.06 5.25.27.47 9.34-5.4 30.7 17.72-9.14 5.27.28.48 9.41-5.44 30.7 17.7-9.21 5.33.27.47 9.49-5.48 30.7 17.71-9.3 5.37.29.47 9.55-5.53 30.7 17.7-9.36 5.43.28.47 9.64-5.57 9.64 5.56.28-.47-9.37-5.4 30.68-17.74 9.56 5.52.28-.48-9.3-5.36 30.7-17.73 9.49 5.48.27-.49-9.22-5.31 30.68-17.73 9.42 5.43.28-.47-9.15-5.28 30.7-17.73 9.34 5.39.27-.47-9.07-5.25 30.68-17.73 9.27 5.35.28-.47-9-5.19 30.68-17.74 9.2 5.31.27-.48-8.92-5.14 8.92-5.15h-.01zm-41.26-12.87l-30.68 17.73-30.7-17.7 30.68-17.73 30.7 17.7zM283.28 302l-30.68 17.74-30.7-17.71 30.69-17.73 30.7 17.7zm-30.14-18.02l30.68-17.74 30.7 17.7-30.69 17.75-30.7-17.71zm30.7 18.34l30.7 17.7-30.69 17.74-30.7-17.7 30.68-17.74zm.54-.31l30.69-17.74 30.7 17.7-30.69 17.74-30.7-17.7zm31.23-18.06l30.69-17.73 30.7 17.7-30.69 17.73-30.69-17.7zm-.54-.31l-30.7-17.71 30.68-17.73 30.7 17.7-30.68 17.74zm-31.25-18.03l-30.7-17.7 30.68-17.73 30.7 17.7-30.68 17.73zm-.55.32l-30.68 17.73-30.7-17.7 30.68-17.73 30.7 17.7zm-31.23 18.05l-30.68 17.73-30.7-17.7 30.68-17.74 30.7 17.71zm-31.23 18.05l-30.68 17.74-30.7-17.7 30.68-17.75 30.7 17.71zm.55.31l30.7 17.72-30.69 17.73-30.7-17.71 30.69-17.73zm31.24 18.03l30.7 17.7-30.68 17.74-30.7-17.7 30.68-17.74zm31.25 18.02l30.7 17.71-30.68 17.73-30.7-17.7 30.68-17.74zm.55-.3l30.68-17.75 30.7 17.7-30.68 17.73-30.7-17.7v.01zm31.23-18.06l30.68-17.73 30.7 17.7-30.68 17.73-30.7-17.7zm31.23-18.05l30.68-17.73 30.7 17.7-30.68 17.73-30.7-17.7zm61.37-36.1l-30.69 17.72-30.69-17.7 30.69-17.73 30.69 17.7zm-31.25-18.03l-30.68 17.74-30.7-17.71 30.69-17.74 30.69 17.7zm-31.25-18.02l-30.68 17.73-30.7-17.7 30.68-17.74 30.7 17.71zM283.8 194.1l30.7 17.7-30.69 17.74-30.7-17.7 30.69-17.74zm-31.23 18.05l30.7 17.7-30.69 17.74-30.7-17.7 30.69-17.74zm-31.23 18.05l30.7 17.7-30.69 17.74-30.7-17.7 30.69-17.74zm-31.24 18.06l30.7 17.7-30.69 17.73-30.69-17.7 30.69-17.73zm-31.23 18.05l30.7 17.7-30.69 17.73-30.69-17.7 30.68-17.73zm-61.91 35.77l30.68-17.72 30.7 17.7-30.69 17.73-30.7-17.7h.01zm31.25 18.03l30.68-17.74 30.7 17.7-30.7 17.75-30.68-17.7zm31.24 18.02l30.69-17.73 30.69 17.7-30.69 17.73-30.69-17.7zm31.25 18.03l30.68-17.74 30.7 17.7-30.68 17.74-30.7-17.7zm31.25 18.01l30.68-17.73 30.7 17.71-30.69 17.73-30.7-17.7zm61.94 35.74l-30.7-17.71 30.69-17.74 30.7 17.72-30.69 17.73zm31.23-18.05l-30.7-17.71 30.69-17.74 30.7 17.7-30.69 17.75zm31.23-18.05l-30.69-17.7 30.69-17.75 30.69 17.7-30.69 17.75zm31.23-18.05l-30.69-17.7 30.69-17.75 30.69 17.71-30.69 17.74zm31.24-18.05L378.1 320l30.69-17.75 30.7 17.71-30.69 17.74zm31.23-18.06l-30.69-17.7 30.68-17.74 30.7 17.71-30.69 17.73z" fill="#C4D6EE"/><g clip-path="url(#clip0)"><path opacity=".21" d="M363.35 349.99l-26.25-15.26a5.4 5.4 0 00-4.07-.54l-.87-.51c1.25-1.49 2-3.1 2.13-4.81l.02.07v-5.13c0-7.43-11.92-13.45-26.63-13.45-14.7 0-26.62 6.02-26.62 13.45v4.58c0 7.43 11.92 13.45 26.63 13.45 6.46 0 12.38-1.16 16.99-3.1l4.55 2.28a5.33 5.33 0 002.46 3.1l26.21 15.28c1.64.95 3.66.97 5.32.06l.03-.02a5.43 5.43 0 00.1-9.45zm-71.74-20.02c3.7 2.45 9.5 4.03 16.06 4.03 10.64 0 19.36-4.17 20.11-9.46a10.87 10.87 0 00.01 0c-.75 5.3-9.46 9.46-20.12 9.46-6.55 0-12.37-1.58-16.06-4.03zm34.96-9.75zm-10.78-5.76zm-4.5-.69zm-23.72 10.84zm-2.74 6.1zm1.08.84zm41.73 5.73l1.5.83-1.51-.83z" fill="url(#paint0_linear)"/><path d="M310.23 333.66c-14.7 0-26.62-6.02-26.62-13.45v4.58c0 7.42 11.92 13.45 26.62 13.45 14.39 0 26.1-5.77 26.6-12.98l.03.07v-5.12c0 7.43-11.92 13.45-26.63 13.45z" fill="#126CC9"/><path d="M310.23 306.75c-14.7 0-26.62 6.02-26.62 13.45s11.92 13.46 26.62 13.46c14.7 0 26.63-6.03 26.63-13.46 0-7.43-11.92-13.45-26.63-13.45zm20.12 14.2c-.75 5.28-9.47 9.45-20.12 9.45-7.48 0-14.02-2.06-17.5-5.13a9.15 9.15 0 01-1.7-1.95 5.74 5.74 0 01-.97-3.12c0-2.3 1.5-4.41 4.04-6.12 3.68-2.47 9.54-4.07 16.14-4.07 6.6 0 12.44 1.6 16.12 4.07a10 10 0 013.37 3.49 5.6 5.6 0 01.62 3.38z" fill="#152F6A"/><path d="M329.72 317.57a10.04 10.04 0 00-3.36-3.49c-3.69-2.47-9.53-4.07-16.13-4.07s-12.45 1.6-16.13 4.08c-2.54 1.7-4.04 3.82-4.04 6.12 0 1.09.34 2.14.96 3.12.75-5.28 9.47-9.46 20.12-9.46 8.99 0 16.6 2.97 19.21 7.08.03-.25.06-.5.06-.75 0-.9-.24-1.8-.69-2.63z" fill="#B2C6DC"/><path opacity=".37" d="M311.13 313.87c-10.64 0-19.36 4.16-20.11 9.45.43.69 1 1.34 1.7 1.95 3.48 3.06 10.01 5.13 17.5 5.13 10.65 0 19.36-4.17 20.12-9.45-2.61-4.12-10.22-7.08-19.2-7.08z" fill="#E6E6E6"/><path d="M327.15 331.98l4.97 2.77 5.36-3.04-4.87-2.88-5.46 3.15z" fill="#CDE4FE"/><path d="M331.97 337.52l.15-2.77-5.02-2.77v3.1l4.87 2.44z" fill="#ACD2FE"/><path d="M337.43 331.7v2.65l-5.46 3.17.15-2.77 5.3-3.04z" fill="#ACD2FE"/><path d="M334.1 331.21a5.43 5.43 0 00.14 9.31l26.21 15.29c1.64.95 3.66.97 5.32.06l.04-.03a5.43 5.43 0 00.1-9.45l-26.25-15.26a5.43 5.43 0 00-5.56.08z" fill="#4290C9"/><path opacity=".21" d="M315.04 293.87l-4.09 2.45 88.02 50.03 4.07-2.54 4.1 2.54 53.2-29.8-4.38-2.18-140.92-20.5z" fill="url(#paint1_linear)"/><path d="M363.49 259.9l88.77 50.6-51.8 29.9-88.64-50.46 51.67-30.03z" fill="url(#paint2_linear)"/><path d="M311.82 289.94v2.05l88.65 50.47-.01-2.05-88.64-50.47z" fill="#ACD2FE"/><path d="M452.26 310.5v2.06l-51.8 29.9v-2.05l51.8-29.9z" fill="#ACD2FE"/><path d="M374.54 259.22l89.63 49.04-51.27 30.8-89.5-48.92 51.14-30.92z" fill="url(#paint3_linear)"/><path d="M323.4 290.14l.05 2.06 89.5 48.91-.05-2.05-89.5-48.92zM464.17 308.26l.05 2.05-51.27 30.8-.05-2.05 51.27-30.8z" fill="#ACD2FE"/><path d="M392.89 309.12l-5.03 2.92-12.17-7.07 5.08-2.84 12.12 7z" fill="#152F6A"/><path d="M380.77 302.13l-5.08 2.84-3.5-2.04 5.1-2.8 3.48 2z" fill="url(#paint4_linear)"/><path d="M372.4 303.05l-5.86-3.4 5.12-2.77 5.84 3.37" fill="url(#paint5_linear)"/><path d="M379.86 295.41l-5.02 2.73-3.44-1.98 5.04-2.7 3.42 1.95z" fill="url(#paint6_linear)"/><path d="M373.58 297.41l-7.75-4.46 5.06-2.67 7.71 4.41" fill="url(#paint7_linear)"/><path d="M380.07 289.33l-4.95 2.64-2.69-1.54 4.95-2.62 2.69 1.52z" fill="url(#paint8_linear)"/><path d="M372.43 290.43l-6.2-3.53 5-2.58 6.15 3.49" fill="url(#paint9_linear)"/><path d="M406.3 292.47l-4.7 2.65-3.46-1.94 4.72-2.63 3.43 1.92z" fill="url(#paint10_linear)"/><path opacity=".66" d="M398.34 293.3l-5.78-3.25 4.73-2.6 5.76 3.22" fill="url(#paint11_linear)"/><path d="M404.3 285.88l-4.63 2.56-5.71-3.18 4.67-2.51 5.68 3.13z" fill="url(#paint12_linear)"/><path opacity=".66" d="M393.96 285.26l-3.19-1.76 4.69-2.5 3.16 1.75" fill="url(#paint13_linear)"/><path d="M398.32 305.96l-4.93 2.87-18.51-10.67 5.01-2.73 18.43 10.53zM403.81 302.77l-4.83 2.81-23.86-13.62 4.94-2.64 23.75 13.45zM408.88 299.83l-4.76 2.76-28.17-15.94 4.87-2.57 28.06 15.75z" fill="#152F6A"/><path d="M379.93 283.58l-4.87 2.56-2.07-1.17 4.88-2.54 2.06 1.15z" fill="url(#paint14_linear)"/><path d="M382.37 284.9l-4.88 2.56-3.28-1.86 4.8-2.58 3.36 1.88z" fill="url(#paint15_linear)"/><path d="M414.08 296.8l-4.66 2.71-7.82-4.39 4.69-2.65 7.8 4.34zM418.96 293.97l-4.58 2.66-14.71-8.19 4.64-2.56 14.65 8.09z" fill="#152F6A"/><path d="M379.2 278.49l-2.74 1.4-3.32-1.85 2.74-1.4 3.32 1.85z" fill="url(#paint16_linear)"/><path d="M387.26 274.34l-7.34 3.78-1.19-.66 7.35-3.77 1.18.65zM391.36 276.6l-7.32 3.82-1.19-.67 7.32-3.8 1.19.65zM395.49 278.87l-7.29 3.86-1.2-.66 7.3-3.86 1.19.66z" fill="#ACD2FE"/><path d="M383.25 280.75l-2.73 1.42-3.34-1.88 2.73-1.4 3.34 1.86z" fill="url(#paint17_linear)"/><path opacity=".66" d="M387.7 283.24l-2.7 1.43-3.38-1.88 2.72-1.43 3.37 1.88z" fill="url(#paint18_linear)"/><path d="M392.47 321.5l41.33-24.83-1.87-.85-41.08 24.79 1.62.88z" fill="url(#paint19_linear)"/><path d="M397.2 324.03l41.32-24.83-1.87-.83-41.08 24.77 1.62.9z" fill="url(#paint20_linear)"/><path d="M403.28 326.46l41.33-24.83-1.87-.84-41.08 24.77 1.62.9z" fill="url(#paint21_linear)"/><path d="M407.92 328.72l41.33-24.83-1.88-.84-41.08 24.78 1.63.89z" fill="url(#paint22_linear)"/><path d="M336.17 289.48l41.32-24.83-1.86-.84-41.08 24.78 1.62.89z" fill="url(#paint23_linear)"/><path d="M340.3 291.72l41.32-24.83-1.87-.84-41.08 24.78 1.63.9z" fill="url(#paint24_linear)"/><path d="M228.4 237.72l-76.33 45.2 8.59 7.45 67.73-39.17s10.2 7.8 12.18 7.07c1.98-.72 35.44-20.56 35.44-20.56l-14.5-8.05.01 1.92 7.6 3.56 59.63-34.92-17.18-9.42-83.18 46.92z" fill="#F3F3F3"/><path d="M223.83 217.04v17.72c0 3.93 2.09 7.56 5.48 9.54l10.87 6.17 31.67-18.4-10.82-5.93a11.03 11.03 0 01-5.56-9.58V198.7l-31.64 18.34z" fill="#B7B6B9"/><path d="M226.49 214.67v17.7c0 3.94 2.1 7.59 5.51 9.55l8.18 4.6 31.67-18.4-8.11-4.35a11.02 11.02 0 01-5.61-9.61v-17.82l-31.64 18.33z" fill="url(#paint25_linear)"/><path d="M271.85 228.12v3.96l-31.67 18.41v-3.97l31.67-18.4z" fill="#B7B6B9"/><path d="M203.46 292.93l-7.42 4.23 51.98 29.76 98.32-56.24-53.77-31.51-89.11 53.76z" fill="url(#paint26_linear)" opacity=".21"/><path d="M248.22 321.67l93.94-53.22-52.2-27.48-93.86 50.3 52.12 30.4z" fill="#16A9FF"/><path d="M248.22 318.16l93.94-53.22-52.2-29.6-93.86 53.17 52.12 29.65z" fill="url(#paint27_linear)"/><path d="M196.1 288.51v3.52l52.12 29.64v-3.51l-52.12-29.65zM342.16 264.94v3.51l-5.67-.3 5.67-3.2z" fill="#1689EF"/><path d="M214.8 290.63l6.37-3.57 5.22 2.88-6.3 3.56-5.3-2.87z" fill="#B8B8B8"/><path d="M214.8 289.93l6.37-3.56 5.22 2.88-6.3 3.56-5.3-2.88z" fill="url(#paint28_linear)"/><path d="M214.8 289.93v.7l5.3 2.87v-.7l-5.3-2.87z" fill="#A7C5DD"/><path d="M226.39 289.25v.69l-6.3 3.56v-.7l6.3-3.55z" fill="#B4D4EE"/><path d="M222.01 286.33l6.38-3.57 5.21 2.88-6.29 3.57-5.3-2.88z" fill="#B8B8B8"/><path d="M222.01 285.64l6.38-3.58 5.21 2.89-6.29 3.56-5.3-2.87z" fill="url(#paint29_linear)"/><path d="M222.01 285.64v.7l5.3 2.87v-.7l-5.3-2.87z" fill="#A7C5DD"/><path d="M233.6 284.95v.7l-6.29 3.56v-.7l6.3-3.56z" fill="#B4D4EE"/><path d="M229.28 282.07l6.38-3.56 5.2 2.88-6.28 3.56-5.3-2.88z" fill="#B8B8B8"/><path d="M229.28 281.38l6.38-3.57 5.2 2.88-6.28 3.56-5.3-2.87z" fill="url(#paint30_linear)"/><path d="M229.28 281.38v.7l5.3 2.87v-.7l-5.3-2.87z" fill="#A7C5DD"/><path d="M240.87 280.7v.69l-6.3 3.56v-.7l6.3-3.56z" fill="#B4D4EE"/><path d="M236.5 277.78l6.37-3.57 5.21 2.88-6.3 3.56-5.29-2.87z" fill="#B8B8B8"/><path d="M236.5 277.08l6.37-3.57 5.21 2.89-6.3 3.56-5.29-2.88z" fill="url(#paint31_linear)"/><path d="M236.5 277.08v.7l5.29 2.87v-.7l-5.3-2.87z" fill="#A7C5DD"/><path d="M248.08 276.4v.69l-6.3 3.56v-.7l6.3-3.55z" fill="#B4D4EE"/><path d="M244.2 273.66l6.37-3.57 5.21 2.88-6.29 3.56-5.3-2.87z" fill="#B8B8B8"/><path d="M244.2 272.96l6.37-3.57 5.21 2.89-6.29 3.56-5.3-2.88z" fill="url(#paint32_linear)"/><path d="M244.2 272.96v.7l5.29 2.87v-.7l-5.3-2.87z" fill="#A7C5DD"/><path d="M255.78 272.28v.69l-6.29 3.56v-.7l6.3-3.55z" fill="#B4D4EE"/><path d="M251.41 269.36l6.38-3.57 5.21 2.88-6.3 3.57-5.29-2.88z" fill="#B8B8B8"/><path d="M251.41 268.67l6.38-3.58 5.21 2.89-6.3 3.56-5.29-2.87z" fill="url(#paint33_linear)"/><path d="M251.41 268.67v.7l5.3 2.87v-.7l-5.3-2.87z" fill="#A7C5DD"/><path d="M263 267.98v.7l-6.3 3.56v-.7l6.3-3.56z" fill="#B4D4EE"/><path d="M258.68 265.1l6.37-3.57 5.22 2.89-6.3 3.56-5.3-2.88z" fill="#B8B8B8"/><path d="M258.68 264.41l6.37-3.57 5.22 2.88-6.3 3.56-5.3-2.87z" fill="url(#paint34_linear)"/><path d="M258.68 264.41v.7l5.3 2.87v-.7l-5.3-2.87z" fill="#A7C5DD"/><path d="M270.27 263.72v.7l-6.3 3.56v-.7l6.3-3.56z" fill="#B4D4EE"/><path d="M265.89 260.8l6.38-3.56 5.2 2.88-6.28 3.56-5.3-2.87z" fill="#B8B8B8"/><path d="M265.89 260.12l6.38-3.58 5.2 2.88-6.28 3.57-5.3-2.88z" fill="url(#paint35_linear)"/><path d="M265.89 260.12v.69l5.3 2.87v-.7l-5.3-2.87z" fill="#A7C5DD"/><path d="M277.48 259.42v.7l-6.29 3.56v-.7l6.29-3.56z" fill="#B4D4EE"/><path d="M273.39 256.55l6.37-3.57 5.22 2.88-6.3 3.56-5.3-2.87z" fill="#B8B8B8"/><path d="M273.39 255.86l6.37-3.58 5.22 2.89-6.3 3.56-5.3-2.87z" fill="url(#paint36_linear)"/><path d="M273.39 255.86v.69l5.3 2.87v-.7l-5.3-2.86z" fill="#A7C5DD"/><path d="M284.98 255.17v.7l-6.3 3.55v-.7l6.3-3.55z" fill="#B4D4EE"/><path d="M280.6 252.25l6.38-3.56 5.2 2.88-6.28 3.56-5.3-2.88z" fill="#B8B8B8"/><path d="M280.6 251.56l6.38-3.57 5.2 2.88-6.28 3.56-5.3-2.87z" fill="url(#paint37_linear)"/><path d="M280.6 251.56v.7l5.3 2.87v-.7l-5.3-2.87z" fill="#A7C5DD"/><path d="M292.19 250.87v.7l-6.29 3.56v-.7l6.29-3.56z" fill="#B4D4EE"/><path d="M287.87 248l6.38-3.57 5.2 2.88-6.28 3.56-5.3-2.87z" fill="#B8B8B8"/><path d="M287.87 247.3l6.38-3.57 5.2 2.88-6.28 3.57-5.3-2.88z" fill="url(#paint38_linear)"/><path d="M287.87 247.3v.7l5.3 2.87v-.7l-5.3-2.86z" fill="#A7C5DD"/><path d="M299.46 246.61v.7l-6.3 3.56v-.7l6.3-3.56z" fill="#B4D4EE"/><path d="M221.68 294.52l6.38-3.57 5.21 2.88-6.29 3.56-5.3-2.87z" fill="#B8B8B8"/><path d="M221.68 293.82l6.38-3.57 5.21 2.88-6.29 3.56-5.3-2.87z" fill="url(#paint39_linear)"/><path d="M221.68 293.82v.7l5.3 2.87v-.7l-5.3-2.87z" fill="#A7C5DD"/><path d="M233.27 293.13v.7l-6.29 3.56v-.7l6.3-3.56z" fill="#B4D4EE"/><path d="M228.9 290.22l6.38-3.58 5.2 2.9-6.28 3.55-5.3-2.87z" fill="#B8B8B8"/><path d="M228.9 289.52l6.38-3.57 5.2 2.88-6.28 3.56-5.3-2.87z" fill="url(#paint40_linear)"/><path d="M228.9 289.52v.7l5.3 2.87v-.7l-5.3-2.87z" fill="#A7C5DD"/><path d="M240.49 288.83v.7l-6.3 3.56v-.7l6.3-3.56z" fill="#B4D4EE"/><path d="M236.16 285.96l6.38-3.57 5.21 2.88-6.29 3.56-5.3-2.87z" fill="#B8B8B8"/><path d="M236.16 285.26l6.38-3.56 5.21 2.88-6.29 3.56-5.3-2.88z" fill="url(#paint41_linear)"/><path d="M236.16 285.26v.7l5.3 2.88v-.7l-5.3-2.88z" fill="#A7C5DD"/><path d="M247.75 284.58v.7l-6.29 3.56v-.7l6.3-3.56z" fill="#B4D4EE"/><path d="M243.38 281.67l6.38-3.58 5.2 2.89-6.28 3.56-5.3-2.87z" fill="#B8B8B8"/><path d="M243.38 280.97l6.38-3.57 5.2 2.88-6.28 3.56-5.3-2.87z" fill="url(#paint42_linear)"/><path d="M243.38 280.97v.7l5.3 2.87v-.7l-5.3-2.87z" fill="#A7C5DD"/><path d="M254.97 280.28v.7l-6.3 3.56v-.7l6.3-3.56z" fill="#B4D4EE"/><path d="M251.08 277.55l6.38-3.58 5.21 2.89-6.3 3.56-5.29-2.88z" fill="#B8B8B8"/><path d="M251.08 276.85l6.38-3.57 5.21 2.88-6.3 3.56-5.29-2.87z" fill="url(#paint43_linear)"/><path d="M251.08 276.85v.7l5.3 2.87v-.7l-5.3-2.87z" fill="#A7C5DD"/><path d="M262.67 276.16v.7l-6.3 3.56v-.7l6.3-3.56z" fill="#B4D4EE"/><path d="M258.3 273.25l6.38-3.57 5.2 2.88-6.28 3.56-5.3-2.87z" fill="#B8B8B8"/><path d="M258.3 272.55l6.38-3.57 5.2 2.88-6.28 3.56-5.3-2.87z" fill="url(#paint44_linear)"/><path d="M258.3 272.55v.7l5.3 2.87v-.7l-5.3-2.87z" fill="#A7C5DD"/><path d="M269.89 271.87v.7l-6.3 3.55v-.7l6.3-3.56z" fill="#B4D4EE"/><path d="M265.56 269l6.38-3.58 5.21 2.88-6.29 3.56-5.3-2.87z" fill="#B8B8B8"/><path d="M265.56 268.3l6.38-3.57 5.21 2.88-6.29 3.56-5.3-2.88z" fill="url(#paint45_linear)"/><path d="M265.56 268.3v.7l5.3 2.86v-.7l-5.3-2.87z" fill="#A7C5DD"/><path d="M277.15 267.6v.7l-6.29 3.56v-.7l6.29-3.55z" fill="#B4D4EE"/><path d="M272.78 264.7l6.37-3.58 5.22 2.88-6.3 3.57-5.3-2.87z" fill="#B8B8B8"/><path d="M272.78 264l6.37-3.57 5.22 2.88-6.3 3.56-5.3-2.87z" fill="url(#paint46_linear)"/><path d="M272.78 264v.7l5.3 2.87v-.7l-5.3-2.87z" fill="#A7C5DD"/><path d="M284.37 263.31v.7l-6.3 3.56v-.7l6.3-3.56z" fill="#B4D4EE"/><path d="M280.27 260.44l6.38-3.57 5.21 2.88-6.29 3.56-5.3-2.87z" fill="#B8B8B8"/><path d="M280.27 259.74l6.38-3.57 5.21 2.88-6.29 3.56-5.3-2.87z" fill="url(#paint47_linear)"/><path d="M280.27 259.74v.7l5.3 2.87v-.7l-5.3-2.87z" fill="#A7C5DD"/><path d="M291.86 259.05v.7l-6.29 3.56v-.7l6.29-3.56z" fill="#B4D4EE"/><path d="M287.49 256.14l6.38-3.57 5.2 2.88-6.28 3.56-5.3-2.87z" fill="#B8B8B8"/><path d="M287.49 255.44l6.38-3.57 5.2 2.89-6.28 3.56-5.3-2.88z" fill="url(#paint48_linear)"/><path d="M287.49 255.45v.69l5.3 2.88v-.7l-5.3-2.87z" fill="#A7C5DD"/><path d="M299.08 254.76v.69l-6.3 3.56v-.7l6.3-3.55z" fill="#B4D4EE"/><path d="M294.75 251.89l6.38-3.58 5.21 2.88-6.3 3.57-5.29-2.87z" fill="#B8B8B8"/><path d="M294.75 251.19l6.38-3.57 5.21 2.88-6.3 3.56-5.29-2.87z" fill="url(#paint49_linear)"/><path d="M294.75 251.19v.7l5.3 2.87v-.7l-5.3-2.87z" fill="#A7C5DD"/><path d="M306.34 250.5v.7l-6.3 3.56v-.7l6.3-3.56z" fill="#B4D4EE"/><path d="M228.06 297.83l6.38-3.57 5.21 2.89-6.3 3.56-5.3-2.88z" fill="#B8B8B8"/><path d="M228.06 297.14l6.38-3.57 5.21 2.88-6.3 3.56-5.3-2.87z" fill="url(#paint50_linear)"/><path d="M228.06 297.14v.7l5.3 2.87v-.7l-5.3-2.87z" fill="#A7C5DD"/><path d="M239.65 296.45v.7l-6.3 3.56v-.7l6.3-3.56z" fill="#B4D4EE"/><path d="M235.27 293.54l6.38-3.57 5.21 2.88-6.29 3.56-5.3-2.87z" fill="#B8B8B8"/><path d="M235.27 292.84l6.38-3.57 5.21 2.88-6.29 3.57-5.3-2.88z" fill="url(#paint51_linear)"/><path d="M235.27 292.84v.7l5.3 2.87v-.7l-5.3-2.87z" fill="#A7C5DD"/><path d="M246.86 292.15v.7l-6.29 3.56v-.7l6.3-3.56z" fill="#B4D4EE"/><path d="M242.54 289.28l6.38-3.57 5.2 2.88-6.28 3.56-5.3-2.87z" fill="#B8B8B8"/><path d="M242.54 288.59l6.38-3.58 5.2 2.88-6.28 3.57-5.3-2.87z" fill="url(#paint52_linear)"/><path d="M242.54 288.59v.69l5.3 2.87v-.69l-5.3-2.87z" fill="#A7C5DD"/><path d="M254.13 287.9v.7l-6.3 3.55v-.69l6.3-3.56z" fill="#B4D4EE"/><path d="M249.75 284.99l6.38-3.57 5.22 2.88-6.3 3.56-5.3-2.88z" fill="#B8B8B8"/><path d="M249.75 284.29l6.38-3.57 5.22 2.88-6.3 3.56-5.3-2.87z" fill="url(#paint53_linear)"/><path d="M249.75 284.29v.7l5.3 2.87v-.7l-5.3-2.87z" fill="#A7C5DD"/><path d="M261.35 283.6v.7l-6.3 3.56v-.7l6.3-3.56z" fill="#B4D4EE"/><path d="M257.46 280.86l6.38-3.57 5.2 2.89-6.29 3.56-5.3-2.88z" fill="#B8B8B8"/><path d="M257.46 280.17l6.38-3.57 5.2 2.88-6.29 3.56-5.3-2.87z" fill="url(#paint54_linear)"/><path d="M257.46 280.17v.7l5.3 2.87v-.7l-5.3-2.87z" fill="#A7C5DD"/><path d="M269.05 279.48v.7l-6.3 3.56v-.7l6.3-3.56z" fill="#B4D4EE"/><path d="M264.67 276.57l6.38-3.57 5.21 2.88-6.29 3.56-5.3-2.87z" fill="#B8B8B8"/><path d="M264.67 275.87l6.38-3.57 5.21 2.88-6.29 3.57-5.3-2.88z" fill="url(#paint55_linear)"/><path d="M264.67 275.87v.7l5.3 2.87v-.7l-5.3-2.87z" fill="#A7C5DD"/><path d="M276.27 275.18v.7l-6.3 3.56v-.7l6.3-3.56z" fill="#B4D4EE"/><path d="M271.94 272.31l6.38-3.57 5.2 2.88-6.28 3.56-5.3-2.87z" fill="#B8B8B8"/><path d="M271.94 271.61l6.38-3.57 5.2 2.88-6.28 3.57-5.3-2.88z" fill="url(#paint56_linear)"/><path d="M271.94 271.61v.7l5.3 2.87v-.7l-5.3-2.87z" fill="#A7C5DD"/><path d="M283.53 270.92v.7l-6.3 3.56v-.7l6.3-3.56z" fill="#B4D4EE"/><path d="M279.15 268.01l6.38-3.57 5.21 2.89-6.3 3.56-5.29-2.88z" fill="#B8B8B8"/><path d="M279.15 267.32l6.38-3.57 5.21 2.88-6.3 3.56-5.29-2.87z" fill="url(#paint57_linear)"/><path d="M279.15 267.32v.7l5.3 2.87v-.7l-5.3-2.87z" fill="#A7C5DD"/><path d="M290.74 266.63v.7l-6.3 3.56v-.7l6.3-3.56z" fill="#B4D4EE"/><path d="M286.65 263.76l6.38-3.57 5.21 2.88-6.3 3.56-5.29-2.87z" fill="#B8B8B8"/><path d="M286.65 263.06l6.38-3.57 5.21 2.88-6.3 3.57-5.29-2.88z" fill="url(#paint58_linear)"/><path d="M286.65 263.06v.7l5.3 2.87v-.7l-5.3-2.87z" fill="#A7C5DD"/><path d="M298.24 262.37v.7l-6.3 3.56v-.7l6.3-3.56z" fill="#B4D4EE"/><path d="M293.86 259.46l6.38-3.57 5.21 2.88-6.29 3.56-5.3-2.87z" fill="#B8B8B8"/><path d="M293.86 258.76l6.38-3.57 5.21 2.89-6.29 3.56-5.3-2.88z" fill="url(#paint59_linear)"/><path d="M293.86 258.76v.7l5.3 2.87v-.7l-5.3-2.87z" fill="#A7C5DD"/><path d="M305.45 258.08v.7l-6.29 3.55v-.7l6.3-3.55z" fill="#B4D4EE"/><path d="M301.13 255.55l6.38-3.57 5.2 2.89-6.28 3.56-5.3-2.88z" fill="#B8B8B8"/><path d="M301.13 254.86l6.38-3.57 5.2 2.88-6.28 3.56-5.3-2.87z" fill="url(#paint60_linear)"/><path d="M301.13 254.85v.7l5.3 2.88v-.7l-5.3-2.88z" fill="#A7C5DD"/><path d="M312.72 254.17v.7l-6.3 3.56v-.7l6.3-3.56z" fill="#B4D4EE"/><path d="M234.94 301.72l6.39-3.57 5.2 2.88-6.29 3.56-5.3-2.87z" fill="#B8B8B8"/><path d="M234.94 301.02l6.39-3.56 5.2 2.88-6.29 3.56-5.3-2.88z" fill="url(#paint61_linear)"/><path d="M234.94 301.02v.7l5.3 2.87v-.7l-5.3-2.87z" fill="#A7C5DD"/><path d="M246.53 300.34v.69l-6.29 3.56v-.7l6.3-3.55z" fill="#B4D4EE"/><path d="M242.16 297.42l6.38-3.57 5.21 2.88-6.3 3.57-5.29-2.88z" fill="#B8B8B8"/><path d="M242.16 296.73l6.38-3.58 5.21 2.9-6.3 3.55-5.29-2.87z" fill="url(#paint62_linear)"/><path d="M242.16 296.73v.7l5.3 2.87v-.7l-5.3-2.87z" fill="#A7C5DD"/><path d="M253.75 296.04v.7l-6.3 3.56v-.7l6.3-3.56z" fill="#B4D4EE"/><path d="M249.42 293.17l6.38-3.57 5.22 2.88-6.3 3.56-5.3-2.87z" fill="#B8B8B8"/><path d="M249.42 292.47l6.38-3.57 5.22 2.88-6.3 3.56-5.3-2.87z" fill="url(#paint63_linear)"/><path d="M249.42 292.47v.7l5.3 2.87v-.7l-5.3-2.87z" fill="#A7C5DD"/><path d="M261.02 291.78v.7l-6.3 3.56v-.7l6.3-3.56z" fill="#B4D4EE"/><path d="M256.64 288.87l6.38-3.57 5.21 2.88-6.3 3.57-5.29-2.88z" fill="#B8B8B8"/><path d="M256.64 288.18l6.38-3.58 5.21 2.89-6.3 3.56-5.29-2.87z" fill="url(#paint64_linear)"/><path d="M256.64 288.18v.69l5.3 2.88v-.7l-5.3-2.87z" fill="#A7C5DD"/><path d="M268.23 287.49v.7l-6.3 3.56v-.7l6.3-3.56z" fill="#B4D4EE"/><path d="M300.75 263.35l6.38-3.58 5.21 2.89-6.3 3.56-5.29-2.88z" fill="#B8B8B8"/><path d="M300.75 262.65l6.38-3.57 5.21 2.88-6.3 3.56-5.29-2.87z" fill="url(#paint65_linear)"/><path d="M300.75 262.65v.7l5.3 2.87v-.7l-5.3-2.87z" fill="#A7C5DD"/><path d="M312.34 261.96v.7l-6.3 3.56v-.7l6.3-3.56z" fill="#B4D4EE"/><path d="M293.28 267.91l6.38-3.57 5.21 2.89-6.29 3.56-5.3-2.88z" fill="#B8B8B8"/><path d="M293.28 267.21l6.38-3.56 5.21 2.88-6.29 3.56-5.3-2.88z" fill="url(#paint66_linear)"/><path d="M293.28 267.21v.7l5.3 2.87v-.69l-5.3-2.88z" fill="#A7C5DD"/><path d="M304.87 266.53v.7l-6.29 3.55v-.69l6.3-3.56z" fill="#B4D4EE"/><path d="M307.76 259.43l6.38-3.58 5.2 2.89-6.28 3.56-5.3-2.87z" fill="#B8B8B8"/><path d="M307.76 258.73l6.38-3.57 5.2 2.88-6.28 3.56-5.3-2.87z" fill="url(#paint67_linear)"/><path d="M307.76 258.73v.7l5.3 2.87v-.7l-5.3-2.87z" fill="#A7C5DD"/><path d="M319.35 258.04v.7l-6.3 3.56v-.7l6.3-3.56z" fill="#B4D4EE"/><path d="M274.6 287.53l20.01-11.36 11.07 5.74-19.84 12.06-11.24-6.44z" fill="#B8B8B8"/><path d="M274.6 286.69l20.01-12.08 11.07 6.46-19.84 12.06-11.24-6.44z" fill="url(#paint68_linear)"/><path d="M274.6 286.69v.84l11.24 6.44v-.84l-11.24-6.44z" fill="#A7C5DD"/><path d="M305.68 281.07v.84l-19.84 12.06v-.84l19.84-12.06z" fill="#B4D4EE"/><path d="M265.26 284.21l26.66-15.54 5.29 2.74-26.58 15.54-5.37-2.74z" fill="#B8B8B8"/><path d="M265.24 283.52l26.66-15.54 5.29 2.74-26.58 15.53-5.37-2.73z" fill="url(#paint69_linear)"/><path d="M265.24 283.52l.02.7 5.37 2.73-.02-.7-5.37-2.73z" fill="#A7C5DD"/><path d="M297.19 270.72l.02.7-26.58 15.53-.02-.7 26.58-15.53z" fill="#B4D4EE"/><path d="M128.34 277.97l-.06-.03.06.03z" fill="#B7B6B9"/><path d="M128.28 277.93l-.13-.07.13.07zM294.79 45.8l.63.36c-.2-.13-.41-.25-.63-.36z" fill="#AEC3DC"/><path d="M311.29 30.07a7.14 7.14 0 00-5.3-1.47c-.61.04-1.22.17-1.75.45-.31.12-.62.27-.93.44l-5.5 3.15a.15.15 0 01-.04.02L150.1 116.12l5.09 3 153.25-86.64a7.1 7.1 0 016.76-.19l-3.91-2.22z" fill="url(#paint70_linear)"/><path d="M152.53 120.66a15.34 15.34 0 00-7.73 13.36l.26 111.92 174.05-98.87.11-108.33a7.12 7.12 0 00-3.35-6.09l-.63-.36a7.1 7.1 0 00-6.76.2l-153.25 86.63-2.7 1.54z" fill="#152F6A"/><path d="M145.06 245.94l.03 12.25a7.12 7.12 0 003.5 6.16l.14.08.06.03a7.1 7.1 0 007.06-.04l159.63-90.7a7.19 7.19 0 003.6-6.24l.03-20.41-174.05 98.87z" fill="url(#paint71_linear)"/><path d="M145.09 258.19l-.03-12.26-.1.06-5.02-2.88.03 12.1a7.12 7.12 0 004.04 6.44l4.59 2.7a7.13 7.13 0 01-3.51-6.16z" fill="#B3B3B3"/><path d="M145.06 245.94l-.26-111.92a15.35 15.35 0 017.73-13.36l2.7-1.54-5.08-3-2.73 1.55a15.35 15.35 0 00-7.74 13.36l.26 112.08 5.02 2.88.1-.05z" fill="#1888EB"/><path d="M155.23 119.12l-2.7 1.54 2.7-1.54z" fill="#B7B6B9"/><path d="M310.5 233.42s2.96 7.39 6.8 10.65c3.83 3.26 19.73 11.53 29.02 11.3 9.3-.23 16.9-8.14 16.6-10.97-.32-2.84-41.77-14.69-52.43-10.98z" fill="#E6E6E6"/><path d="M310.5 233.42s25.41 16.41 30.57 17.2c5.14.8-19.5-21.53-30.58-17.2z" fill="#C5C8CC"/><path d="M341.06 250.62s-23-16.22-28.93-16.59c-5.93-.36 1.96-10.91 10.97-10.79 7.1.1 35.66 10.35 39.15 15.5 3.5 5.15-11.53 15.67-21.19 11.88z" fill="url(#paint72_linear)"/><path d="M175.1 153.44l113.45-65.36.03 13.49L175.1 166.9v-13.47z" fill="#0A1F4F"/><path d="M316.25 190.7a33.76 33.76 0 01-17.24-29.41l-.04-32.91a14.3 14.3 0 00-7.22-12.4l-19.57-10.44-84.1 46.8L209 163.21a14.3 14.3 0 017.19 12.4v32.98c0 12.05 6.4 23.18 16.82 29.22l.86.5 82.38-47.61z" fill="#fff"/><path d="M241.63 228.05a.23.23 0 01-.16-.06.25.25 0 01-.04-.35c.05-.06.13-.1.2-.1.05-.01.19-.06.57-.25.12-.06.27-.01.33.1.06.13 0 .28-.12.34-.45.23-.65.32-.78.32zM243.64 227.07a.25.25 0 01-.22-.13.25.25 0 01.1-.34 78 78 0 001.32-.71.24.24 0 01.34.1c.06.12.01.27-.1.33l-1.33.72a.2.2 0 01-.11.03zm2.64-1.44a.25.25 0 01-.22-.13.24.24 0 01.1-.33l1.3-.73a.25.25 0 01.35.1c.06.11.02.26-.1.33l-1.32.73a.25.25 0 01-.11.03zm2.62-1.47a.25.25 0 01-.22-.12.25.25 0 01.1-.34l1.31-.74a.25.25 0 01.34.1c.07.12.02.27-.1.33l-1.3.74a.22.22 0 01-.13.03zm2.62-1.47a.25.25 0 01-.22-.13.25.25 0 01.1-.34l1.3-.74a.25.25 0 01.34.1c.07.11.03.26-.1.33l-1.3.74a.23.23 0 01-.12.04zm2.61-1.48a.25.25 0 01-.12-.47l1.3-.74a.25.25 0 01.34.1c.07.12.03.27-.09.33l-1.3.75a.23.23 0 01-.13.03zm2.62-1.49a.24.24 0 01-.22-.12.25.25 0 01.1-.34l1.3-.74a.25.25 0 01.34.09c.07.11.02.27-.1.34l-1.3.74a.25.25 0 01-.12.03zm2.6-1.48a.24.24 0 01-.21-.13.25.25 0 01.1-.34l1.3-.75a.25.25 0 01.33.1c.07.12.03.27-.09.34l-1.3.74a.26.26 0 01-.13.04zm2.6-1.5a.24.24 0 01-.2-.12.25.25 0 01.08-.34l1.3-.75a.25.25 0 01.35.1c.06.11.02.27-.1.33l-1.3.75a.23.23 0 01-.12.03zm2.61-1.49a.24.24 0 01-.21-.12.25.25 0 01.1-.34l1.3-.75a.25.25 0 01.33.1c.07.11.03.27-.09.33l-1.3.75a.26.26 0 01-.13.03zm2.6-1.5a.24.24 0 01-.2-.12.25.25 0 01.09-.34l1.3-.75a.24.24 0 01.33.1c.07.11.03.27-.09.34l-1.3.74a.25.25 0 01-.13.04zm2.6-1.49a.24.24 0 01-.21-.12.25.25 0 01.1-.34l1.3-.75a.25.25 0 01.33.1c.07.11.03.27-.09.33l-1.3.75a.25.25 0 01-.13.03zm2.6-1.5a.23.23 0 01-.2-.12.25.25 0 01.08-.34l1.31-.75a.25.25 0 01.34.1c.07.11.03.26-.1.33l-1.3.75a.25.25 0 01-.13.04zm2.6-1.5a.24.24 0 01-.2-.12.25.25 0 01.09-.34l1.3-.75a.25.25 0 01.34.1c.06.11.03.26-.1.33l-1.3.75a.25.25 0 01-.12.04zm2.6-1.5a.24.24 0 01-.2-.12.25.25 0 01.08-.34l1.3-.75a.25.25 0 01.34.1c.07.1.03.26-.09.33l-1.3.75a.23.23 0 01-.12.03zm2.6-1.5a.24.24 0 01-.2-.12.25.25 0 01.09-.34l1.3-.75a.25.25 0 01.34.09c.06.12.03.27-.1.34l-1.3.75a.25.25 0 01-.12.03zm2.6-1.5a.24.24 0 01-.2-.12.25.25 0 01.08-.34l1.3-.75a.25.25 0 11.25.43l-1.3.75a.23.23 0 01-.12.03zm2.6-1.5a.24.24 0 01-.21-.13.25.25 0 01.1-.33l1.3-.76a.25.25 0 01.33.1c.07.11.03.27-.09.34l-1.3.75a.24.24 0 01-.13.03zm2.6-1.5a.24.24 0 01-.21-.13.25.25 0 01.09-.34l1.3-.75a.25.25 0 11.25.43l-1.3.75a.23.23 0 01-.13.03zm2.6-1.5a.24.24 0 01-.21-.13.25.25 0 01.1-.34l1.3-.75a.25.25 0 01.33.1c.07.11.03.27-.09.33l-1.3.75c-.04.02-.09.03-.13.03zm2.6-1.51a.24.24 0 01-.21-.13.25.25 0 01.09-.34l1.3-.75a.25.25 0 01.34.09c.06.11.02.27-.1.34l-1.3.75a.34.34 0 01-.12.04zm2.6-1.51a.24.24 0 01-.21-.13.25.25 0 01.09-.34l1.3-.76a.25.25 0 01.34.1c.07.11.03.27-.1.34l-1.3.75a.25.25 0 01-.12.04zm2.6-1.51a.24.24 0 01-.22-.12.25.25 0 01.1-.34l1.3-.76a.25.25 0 01.33.1c.07.11.03.27-.09.33l-1.3.76a.27.27 0 01-.12.03zm2.6-1.51a.24.24 0 01-.21-.12.25.25 0 01.09-.34l1.3-.76a.25.25 0 01.34.1c.06.11.03.27-.1.33l-1.3.76a.29.29 0 01-.12.03zM303.46 192.76a.24.24 0 01-.21-.12.25.25 0 01.09-.33l.64-.38a.25.25 0 01.34.09c.06.12.03.27-.1.34l-.63.37a.23.23 0 01-.13.03zM288.19 125.56l.77.46-60.68 34.96-.76-.44 60.66-34.98zM286.3 124.1l.77.47-60.68 34.96-.76-.44 60.67-34.99zM290.48 127.17l.62.78-17.94 10.42-.92-.58 18.24-10.62zM292.23 129.07v1.05l-18.25 10.6.02-1.03 18.23-10.62zM229.22 168.35a.23.23 0 01-.15-.05.25.25 0 01-.04-.35c.04-.06.13-.1.2-.1.05-.01.18-.07.56-.25a.24.24 0 01.33.1c.06.13 0 .28-.11.34-.45.23-.66.31-.79.31zM231.23 167.38a.25.25 0 01-.12-.47c.4-.2.83-.44 1.32-.72a.25.25 0 01.24.44l-1.33.71a.22.22 0 01-.11.04zm2.64-1.45a.26.26 0 01-.22-.12.24.24 0 01.1-.34l1.3-.73a.25.25 0 11.25.44l-1.32.73a.32.32 0 01-.11.02zm2.63-1.46a.25.25 0 01-.13-.46l1.31-.74a.25.25 0 01.34.1c.07.12.03.27-.1.34l-1.3.73a.27.27 0 01-.13.03zm2.61-1.47a.25.25 0 01-.12-.47l1.3-.74a.25.25 0 01.34.1c.07.12.03.27-.1.33l-1.3.75a.22.22 0 01-.12.03zm2.61-1.48a.25.25 0 01-.21-.13.25.25 0 01.09-.34l1.3-.74a.25.25 0 01.34.1c.07.11.03.26-.09.33l-1.3.74a.21.21 0 01-.13.04zm2.62-1.49a.24.24 0 01-.22-.12.25.25 0 01.1-.34l1.3-.75a.25.25 0 01.34.1c.07.11.02.27-.1.34l-1.3.74a.25.25 0 01-.12.03zm2.6-1.48a.24.24 0 01-.21-.13.25.25 0 01.1-.34l1.3-.74a.25.25 0 01.33.09c.07.12.03.27-.09.34l-1.3.74a.3.3 0 01-.13.04zm2.61-1.5a.23.23 0 01-.21-.12.25.25 0 01.09-.34l1.3-.74a.25.25 0 01.34.09c.07.12.03.27-.1.34l-1.3.74a.26.26 0 01-.12.04zm2.6-1.49a.24.24 0 01-.21-.13.25.25 0 01.1-.34l1.3-.74a.25.25 0 11.25.43l-1.31.75a.24.24 0 01-.13.03zm2.6-1.5a.24.24 0 01-.2-.12.25.25 0 01.08-.34l1.3-.74a.25.25 0 01.34.09c.07.12.03.27-.09.34l-1.3.74a.23.23 0 01-.13.04zm2.6-1.49a.24.24 0 01-.21-.12.25.25 0 01.1-.34l1.3-.75a.25.25 0 01.33.1c.07.1.03.26-.09.33l-1.3.75a.24.24 0 01-.13.03zm2.6-1.5a.23.23 0 01-.2-.12.25.25 0 01.08-.34l1.31-.75a.25.25 0 01.34.1c.07.1.03.26-.1.33l-1.3.75a.25.25 0 01-.13.03zm2.6-1.5a.24.24 0 01-.2-.12.25.25 0 01.09-.34l1.3-.75a.25.25 0 11.25.43l-1.3.75a.24.24 0 01-.13.03zm2.61-1.5a.24.24 0 01-.21-.12.25.25 0 01.09-.34l1.3-.75a.25.25 0 01.34.1c.07.11.03.26-.1.33l-1.3.75a.32.32 0 01-.12.04zm2.6-1.5a.24.24 0 01-.21-.12.25.25 0 01.09-.34l1.3-.75a.25.25 0 11.25.43l-1.3.75a.24.24 0 01-.13.04zm2.6-1.5a.24.24 0 01-.21-.12.25.25 0 01.09-.34l1.3-.75a.25.25 0 01.34.1c.07.1.03.26-.1.33l-1.3.75a.33.33 0 01-.12.03zm2.6-1.5a.24.24 0 01-.21-.13.25.25 0 01.09-.34l1.3-.75a.25.25 0 01.34.1c.06.11.03.27-.1.33l-1.3.75a.25.25 0 01-.12.04zm2.6-1.5a.24.24 0 01-.22-.13.25.25 0 01.1-.34l1.3-.75a.25.25 0 01.33.1c.07.11.03.27-.09.33l-1.3.75a.25.25 0 01-.12.04zm2.6-1.5a.24.24 0 01-.22-.13.25.25 0 01.1-.34l1.3-.75a.25.25 0 01.33.09c.07.11.03.27-.09.34l-1.3.75a.24.24 0 01-.13.03zm2.6-1.52a.24.24 0 01-.22-.12.25.25 0 01.09-.34l1.3-.76a.25.25 0 11.25.43l-1.3.76a.24.24 0 01-.13.03zm2.59-1.5a.23.23 0 01-.21-.13.25.25 0 01.09-.34l1.3-.75a.25.25 0 01.34.09c.06.12.03.27-.1.34l-1.3.75a.23.23 0 01-.12.04zm2.6-1.51a.24.24 0 01-.21-.12.25.25 0 01.09-.34l1.3-.76a.25.25 0 11.25.43l-1.3.76a.3.3 0 01-.13.03zm2.6-1.51a.24.24 0 01-.21-.13.25.25 0 01.09-.33l1.3-.76a.25.25 0 01.34.1c.06.1.03.26-.1.33l-1.3.76a.28.28 0 01-.12.03zM291.06 133.07a.24.24 0 01-.22-.12.25.25 0 01.1-.34l.63-.37a.25.25 0 01.34.09c.07.11.03.27-.1.34l-.63.37a.26.26 0 01-.13.03zM221.7 158.47a.25.25 0 01-.22-.13.24.24 0 01.1-.33l.64-.36a.25.25 0 01.34.09c.07.11.02.27-.1.34l-.64.37a.4.4 0 01-.12.02zM223.66 157.36a.24.24 0 01-.22-.13.25.25 0 01.1-.34l1.31-.75a.25.25 0 01.34.1c.07.1.03.26-.09.33l-1.32.75a.26.26 0 01-.13.04zm2.64-1.51a.24.24 0 01-.22-.13.25.25 0 01.1-.34l1.32-.75a.25.25 0 01.34.1c.06.12.02.27-.1.34l-1.32.75a.25.25 0 01-.12.03zm2.63-1.5a.24.24 0 01-.21-.13.25.25 0 01.1-.34l1.31-.75a.25.25 0 01.34.1c.07.11.03.27-.1.33l-1.31.75a.26.26 0 01-.13.04zm2.64-1.5a.24.24 0 01-.21-.13.25.25 0 01.09-.34l1.31-.75a.25.25 0 01.34.09c.07.12.03.27-.09.34l-1.31.75a.26.26 0 01-.13.03zm2.64-1.5a.24.24 0 01-.22-.13.25.25 0 01.1-.34l1.31-.75a.25.25 0 01.34.09c.07.11.02.27-.1.34l-1.3.75a.26.26 0 01-.13.03zm2.63-1.51a.24.24 0 01-.22-.13.25.25 0 01.1-.34l1.31-.75a.25.25 0 01.34.1c.07.11.02.27-.1.34l-1.3.75a.23.23 0 01-.13.03zm2.63-1.5a.24.24 0 01-.21-.13.25.25 0 01.1-.34l1.3-.75a.25.25 0 01.35.1c.06.11.02.27-.1.33l-1.31.75a.25.25 0 01-.13.04zm2.64-1.5a.24.24 0 01-.21-.13.25.25 0 01.09-.34l1.31-.75a.25.25 0 01.34.1c.07.11.03.27-.09.33l-1.31.75a.25.25 0 01-.13.04zm2.63-1.5a.24.24 0 01-.21-.13.25.25 0 01.09-.34l1.32-.75a.25.25 0 01.33.1c.07.11.03.26-.09.33l-1.31.75a.25.25 0 01-.13.04zm2.63-1.5a.24.24 0 01-.21-.13.25.25 0 01.1-.34l1.3-.75a.25.25 0 01.35.1c.06.11.02.26-.1.33l-1.31.75a.3.3 0 01-.13.03zm2.63-1.5a.24.24 0 01-.2-.13.25.25 0 01.08-.34l1.32-.75a.25.25 0 01.34.09c.06.12.02.27-.1.34l-1.31.75a.24.24 0 01-.13.03zm2.63-1.5a.24.24 0 01-.2-.13.25.25 0 01.08-.34l1.33-.75a.25.25 0 01.33.09c.07.11.03.27-.09.34l-1.32.75a.24.24 0 01-.13.03zm2.64-1.51a.23.23 0 01-.21-.13.25.25 0 01.1-.33l1.3-.75a.25.25 0 01.35.09c.06.12.02.27-.1.34l-1.31.75a.29.29 0 01-.13.03zm2.64-1.5a.24.24 0 01-.22-.13.25.25 0 01.1-.34l1.31-.75a.25.25 0 01.34.1c.07.11.02.26-.1.33l-1.3.75a.25.25 0 01-.13.03zm2.63-1.5a.24.24 0 01-.21-.13.25.25 0 01.09-.34l1.31-.75a.25.25 0 01.34.09c.07.12.03.27-.09.34l-1.31.75a.24.24 0 01-.13.03zm2.64-1.5a.24.24 0 01-.22-.13.25.25 0 01.1-.34l1.31-.75a.25.25 0 01.34.09c.07.11.02.27-.1.34l-1.3.75a.26.26 0 01-.13.03zm2.63-1.51a.24.24 0 01-.22-.13.25.25 0 01.1-.34l1.31-.75a.25.25 0 01.34.1c.07.12.03.27-.1.34l-1.3.75a.24.24 0 01-.13.03zm2.63-1.5a.24.24 0 01-.2-.13.25.25 0 01.08-.34l1.32-.75a.25.25 0 01.34.1c.06.11.02.27-.1.33l-1.31.75a.26.26 0 01-.13.04zm2.63-1.5a.24.24 0 01-.2-.13.25.25 0 01.08-.34l1.32-.75a.25.25 0 01.34.1c.07.12.02.27-.1.33l-1.3.75a.23.23 0 01-.13.04zm2.64-1.5a.24.24 0 01-.21-.13.25.25 0 01.09-.34l1.32-.75a.25.25 0 01.33.09c.07.12.03.27-.09.34l-1.31.75a.25.25 0 01-.13.03zm2.8-1.56l-.16-.2-.1-.23 1.3-.73a.25.25 0 01.33.1c.07.1.02.26-.1.33l-1.28.73zm-.16-.2zm2.63-1.25a.24.24 0 01-.2-.13.25.25 0 01.08-.34l1.32-.75a.25.25 0 01.34.1c.07.12.03.27-.09.33l-1.32.75a.24.24 0 01-.13.04zm2.64-1.5a.24.24 0 01-.2-.13.25.25 0 01.08-.34l1.32-.76a.25.25 0 01.34.1c.07.11.03.26-.09.33l-1.32.76a.26.26 0 01-.13.03zM284.16 122.85a.24.24 0 01-.21-.12.25.25 0 01.09-.34l.64-.37a.25.25 0 01.34.1c.07.11.03.27-.09.33l-.64.37a.24.24 0 01-.13.03z" fill="#D9F4F9"/><path d="M249.72 203.8l-21.54 12.59v-1.24l21.54-12.59v1.24zM249.72 201.03l-21.54 12.6v-1.25l21.54-12.59v1.24zM245.05 209.1l-12.2 7.14V215l12.2-7.13v1.24z" fill="#A3D9EF"/><path d="M259.08 214.51l-18.15 11.05-7.12-6.16 18.15-11.05 7.12 6.16z" fill="#152F6A"/><path d="M198.37 314.75l-.11.07.11-.07-8.56-13.06-43.64 24.78-.25 5.53 8.92 12.76 43.53 24.01 47.43-27.32-3.63-1.68-43.8-25.02z" fill="url(#paint73_linear)" opacity=".21"/><path d="M155.66 334.78l43.53-25.1 43.8 25.03-43.6 24.87-43.73-24.8z" fill="#152F6A"/><path d="M162.54 334.98c.21-.14 7.78-4.32 7.78-4.32l6.09 3.13-7.89 4.53-5.98-3.34z" fill="#ABB4BB"/><path d="M162.54 334.45c.21-.14 7.78-4.32 7.78-4.32l6.09 3.14-7.89 4.52-5.98-3.34z" fill="url(#paint74_linear)"/><path d="M162.54 334.45v.53l5.98 3.35v-.53l-5.98-3.35z" fill="#ABB4BB"/><path d="M176.4 333.27v.53l-7.88 4.53v-.53l7.88-4.53z" fill="#BAC4CC"/><path d="M171.89 328.97c.21-.14 7.78-4.32 7.78-4.32l6.09 3.13-7.89 4.53-5.98-3.34z" fill="url(#paint75_linear)"/><path d="M171.89 328.97v.53l5.98 3.34v-.52l-5.98-3.35z" fill="#ABB4BB"/><path d="M185.76 327.79v.53l-7.9 4.53v-.53l7.9-4.53z" fill="#BAC4CC"/><path d="M181.02 323.59c.21-.14 7.78-4.32 7.78-4.32l6.09 3.14-7.88 4.53-5.99-3.35z" fill="url(#paint76_linear)"/><path d="M181.02 323.59v.53l5.98 3.34v-.52l-5.98-3.35z" fill="#ABB4BB"/><path d="M194.9 322.4v.54l-7.9 4.52v-.52l7.9-4.53z" fill="#BAC4CC"/><path d="M190.78 318.05c.22-.14 7.79-4.32 7.79-4.32l6.08 3.14-7.88 4.53-5.99-3.35z" fill="url(#paint77_linear)"/><path d="M190.78 318.05v.54l5.98 3.34v-.53l-5.98-3.35z" fill="#ABB4BB"/><path d="M204.65 316.87v.53l-7.89 4.53v-.53l7.9-4.53z" fill="#BAC4CC"/><path d="M170.08 338.77c.21-.14 7.78-4.32 7.78-4.32l6.09 3.14-7.89 4.52-5.98-3.34z" fill="url(#paint78_linear)"/><path d="M170.08 338.77v.53l5.98 3.35v-.53l-5.98-3.35z" fill="#ABB4BB"/><path d="M183.95 337.6v.52l-7.89 4.53v-.53l7.89-4.53z" fill="#BAC4CC"/><path d="M179.43 333.29c.21-.14 7.78-4.32 7.78-4.32l6.09 3.13-7.89 4.53-5.98-3.34z" fill="url(#paint79_linear)"/><path d="M179.43 333.29v.53l5.98 3.34v-.53l-5.98-3.34z" fill="#ABB4BB"/><path d="M193.3 332.1v.54l-7.89 4.52v-.53l7.89-4.53z" fill="#BAC4CC"/><path d="M188.57 327.9c.2-.13 7.78-4.31 7.78-4.31l6.09 3.13-7.89 4.53-5.98-3.34z" fill="url(#paint80_linear)"/><path d="M188.57 327.9v.54l5.98 3.34v-.52l-5.98-3.35z" fill="#ABB4BB"/><path d="M202.44 326.73v.52l-7.89 4.53v-.52l7.89-4.53z" fill="#BAC4CC"/><path d="M206.57 326.65c.2-.14 7.78-4.32 7.78-4.32l22.41 12.1-7.88 4.52-22.31-12.3z" fill="url(#paint81_linear)"/><path d="M206.57 326.65v.52l22.3 12.31v-.52l-22.3-12.31z" fill="#ABB4BB"/><path d="M236.76 334.43v.53l-7.89 4.52v-.52l7.9-4.53z" fill="#BAC4CC"/><path d="M177.85 343.24c.21-.14 7.78-4.32 7.78-4.32l6.09 3.14-7.89 4.52-5.98-3.34z" fill="url(#paint82_linear)"/><path d="M177.85 343.24v.53l5.98 3.35v-.53l-5.98-3.35z" fill="#ABB4BB"/><path d="M191.72 342.06v.53l-7.9 4.53v-.53l7.9-4.53z" fill="#BAC4CC"/><path d="M187.2 337.76c.21-.14 7.78-4.32 7.78-4.32l6.09 3.13-7.89 4.53-5.98-3.34z" fill="url(#paint83_linear)"/><path d="M187.2 337.76v.53l5.98 3.34v-.52l-5.98-3.35z" fill="#ABB4BB"/><path d="M201.07 336.58v.53l-7.89 4.52v-.52l7.89-4.53z" fill="#BAC4CC"/><path d="M196.34 332.38c.2-.14 7.78-4.32 7.78-4.32l6.08 3.13-7.88 4.53-5.98-3.34z" fill="url(#paint84_linear)"/><path d="M196.34 332.38v.53l5.97 3.34v-.52l-5.97-3.35z" fill="#ABB4BB"/><path d="M210.2 331.2v.53l-7.89 4.52v-.52l7.9-4.53z" fill="#BAC4CC"/><path d="M185.76 347.29c.2-.14 7.78-4.32 7.78-4.32l6.08 3.13-7.88 4.53-5.98-3.34z" fill="url(#paint85_linear)"/><path d="M185.76 347.29v.52l5.98 3.35v-.53l-5.98-3.34z" fill="#ABB4BB"/><path d="M199.62 346.1v.53l-7.89 4.53v-.53l7.9-4.52z" fill="#BAC4CC"/><path d="M195.1 341.8c.22-.14 7.8-4.32 7.8-4.32l6.08 3.14-7.89 4.53-5.98-3.35z" fill="url(#paint86_linear)"/><path d="M195.1 341.8v.53l6 3.35v-.53l-6-3.35z" fill="#ABB4BB"/><path d="M208.98 340.62v.53l-7.89 4.53v-.53l7.89-4.53z" fill="#BAC4CC"/><path d="M204.24 336.42c.22-.14 7.79-4.32 7.79-4.32l6.08 3.14-7.88 4.52-5.99-3.34z" fill="url(#paint87_linear)"/><path d="M204.24 336.42v.53l5.98 3.35v-.53l-5.98-3.35z" fill="#ABB4BB"/><path d="M218.11 335.24v.53l-7.89 4.53v-.53l7.9-4.53z" fill="#BAC4CC"/><path d="M194.05 352.45c.21-.14 7.78-4.32 7.78-4.32l6.09 3.14-7.89 4.53-5.98-3.35z" fill="url(#paint88_linear)"/><path d="M194.05 352.45v.53l5.98 3.35v-.53l-5.98-3.35z" fill="#ABB4BB"/><path d="M207.92 351.27v.53l-7.9 4.53v-.53l7.9-4.53z" fill="#BAC4CC"/><path d="M203.4 346.97c.21-.14 7.78-4.32 7.78-4.32l6.09 3.14-7.89 4.53-5.98-3.35z" fill="url(#paint89_linear)"/><path d="M203.4 346.97v.53l5.98 3.35v-.53l-5.98-3.35z" fill="#ABB4BB"/><path d="M217.27 345.8v.52l-7.89 4.53v-.53l7.89-4.53z" fill="#BAC4CC"/><path d="M212.53 341.6c.22-.15 7.79-4.33 7.79-4.33l6.08 3.13-7.88 4.53-5.99-3.34z" fill="url(#paint90_linear)"/><path d="M212.53 341.6v.52l5.98 3.34v-.52l-5.97-3.35z" fill="#ABB4BB"/><path d="M226.4 340.4v.54l-7.89 4.52v-.52l7.9-4.53z" fill="#BAC4CC"/><path d="M198.1 322.63c.2-.14 7.78-4.32 7.78-4.32l6.08 3.14-7.88 4.53-5.98-3.35z" fill="url(#paint91_linear)"/><path d="M198.1 322.63v.53l5.98 3.34v-.52l-5.98-3.35z" fill="#ABB4BB"/><path d="M211.97 321.45v.53l-7.89 4.52v-.52l7.88-4.53z" fill="#BAC4CC"/><path d="M155.66 334.78l-8.67-13.38 43.64-24.77 8.56 13.06-43.53 25.09z" fill="#152F6A"/><path d="M158.11 330.14l-4.46-7.03 36.46-21.85 4.99 7.76-36.99 21.12z" fill="url(#paint92_linear)"/><path d="M147 321.4l-.26 5.54 8.92 12.76v-4.92l-8.67-13.38z" fill="#1887EA"/><path d="M155.66 339.7l43.53 24 .2-4.12-43.73-24.8v4.92z" fill="#1689EF"/><path d="M199.2 363.7l43.8-24.93v-4.06l-43.6 24.87-.2 4.13z" fill="url(#paint93_linear)"/><path d="M160.33 319.1v9.87l3.08-1.86v-9.85l-3.08 1.84z" fill="#C9F5FF"/><path d="M175.35 271.38c-.24-2.86-1.2-5.17-2.78-6.7l2.64.44a5049.42 5049.42 0 00-5.42-2.16h-.03c-.6-.2-1.25-.34-1.94-.38-.58-.05-1.19-.05-1.83.02-8.02.81-17.43 10.24-21.02 21.05l-.04.14c-2.72 8.33-1.17 15.02 3.38 17.23l.04.02a7 7 0 00.9.35l4.95 1.97-1.78-1.58a16.42 16.42 0 007.21-2.42c6.03-3.6 11.77-10.77 14.4-18.67a23.59 23.59 0 001.32-9.31zM170.9 281c-2.82 8.5-10.2 15.9-16.5 16.53-.24.03-.46.04-.68.05a5.98 5.98 0 01-5.36-2.72c-1.65-2.56-1.88-6.7-.27-11.54.47-1.4 1.06-2.77 1.74-4.1 3.12-5.94 8.25-10.76 13.07-12.1a12.1 12.1 0 011.7-.33c2.29-.23 4.12.47 5.39 1.86l.17.2c2.07 2.47 2.49 6.9.74 12.15z" fill="#C69249"/><path d="M164.1 266.87c-6.03 3.6-11.78 10.76-14.4 18.67l-.05.15a23.57 23.57 0 00-1.28 9.18c-1.66-2.56-1.88-6.7-.28-11.54.47-1.4 1.06-2.77 1.75-4.1 3.12-5.94 8.25-10.76 13.06-12.1.4-.1.8-.2 1.2-.26z" fill="#C69249"/><path d="M172.54 264.46h-.19a9.38 9.38 0 00-1.63.02c-2.15.23-4.4 1.06-6.62 2.39-6.03 3.6-11.78 10.76-14.4 18.67l-.05.14a23.57 23.57 0 00-1.28 9.18c.25 2.98 1.29 5.39 2.99 6.93 1.58 1.42 3.73 2.12 6.36 1.85 8.02-.81 17.44-10.24 21.02-21.05 3.3-9.95.53-17.6-6.2-18.13zm3.08 18.44c-2.73 8.27-9.81 15.5-15.99 16.47l-.5.06a6.17 6.17 0 01-5.17-1.62l-.23-.23c-2.2-2.42-2.7-6.96-.9-12.36.46-1.4 1.05-2.77 1.74-4.1 3.12-5.94 8.25-10.76 13.06-12.1a10 10 0 012.37-.36 5.92 5.92 0 015.36 2.72c1.64 2.55 1.87 6.69.26 11.52z" fill="#F8B65B"/><path d="M169.32 268.7c-.55.05-1.12.16-1.7.32-4.8 1.34-9.94 6.16-13.05 12.11-.7 1.32-1.28 2.7-1.75 4.1-1.85 5.57-1.27 10.23 1.13 12.58-2.06-2.46-2.48-6.9-.74-12.15.68-2.02 1.6-3.98 2.72-5.8 2.81-4.6 6.8-8.32 10.71-9.93 1.04-.42 2.07-.7 3.08-.8a6.2 6.2 0 015.16 1.62c-1.26-1.52-3.15-2.3-5.56-2.06z" fill="#E7AA55"/><path d="M174.9 270.75a6.17 6.17 0 00-5.18-1.62c-1 .1-2.04.38-3.07.8-3.92 1.6-7.9 5.33-10.72 9.94a28.48 28.48 0 00-2.71 5.8c-1.74 5.24-1.33 9.68.74 12.15a6.17 6.17 0 005.16 1.62c6.3-.64 13.69-8.04 16.5-16.53 1.75-5.25 1.33-9.69-.73-12.16z" fill="#FACE90"/><path d="M174.9 270.75c2.05 2.47 2.47 6.9.73 12.16-2.82 8.49-10.21 15.89-16.5 16.53a6.2 6.2 0 01-5.17-1.62c1.27 1.52 3.16 2.3 5.56 2.06 6.3-.64 13.69-8.04 16.5-16.53 1.85-5.58 1.27-10.24-1.13-12.6z" fill="#E7AA55"/><path d="M161.16 282.3l2.2-1.02c-.36.56-.6 1.18-.72 1.89l-1.5.66-.01 1.25 1.42-.61c.04.9.29 1.55.75 1.95.46.41 1.07.55 1.85.43-.28.21-.53.47-.76.79-.22.31-.44.7-.64 1.18l-2.33 4.97 1.85-.59 2.29-5.05c.24-.55.49-.97.74-1.26.26-.29.6-.51 1.03-.68l2.16-.82v-1.65l-3.22 1.29c-1.37.54-2.1.14-2.21-1.2l5.43-2.32v-1.37l-5.34 2.36a3.59 3.59 0 012.15-2.57l3.19-1.47v-1.35l-8.31 3.96-.02 1.22z" fill="#F8B65B"/></g><defs><linearGradient id="paint0_linear" x1="369.54" y1="366.72" x2="288.08" y2="313.36" gradientUnits="userSpaceOnUse"><stop/><stop offset=".3" stop-color="#020202"/><stop offset=".44" stop-color="#0A0A0A"/><stop offset=".54" stop-color="#161616"/><stop offset=".63" stop-color="#282828"/><stop offset=".71" stop-color="#404040"/><stop offset=".78" stop-color="#5D5D5D"/><stop offset=".84" stop-color="gray"/><stop offset=".9" stop-color="#A8A8A8"/><stop offset=".96" stop-color="#D4D4D4"/><stop offset="1" stop-color="#fff"/></linearGradient><linearGradient id="paint1_linear" x1="381.34" y1="345.15" x2="389.93" y2="268.14" gradientUnits="userSpaceOnUse"><stop/><stop offset=".3" stop-color="#020202"/><stop offset=".44" stop-color="#0A0A0A"/><stop offset=".54" stop-color="#161616"/><stop offset=".63" stop-color="#282828"/><stop offset=".71" stop-color="#404040"/><stop offset=".78" stop-color="#5D5D5D"/><stop offset=".84" stop-color="gray"/><stop offset=".9" stop-color="#A8A8A8"/><stop offset=".96" stop-color="#D4D4D4"/><stop offset="1" stop-color="#fff"/></linearGradient><linearGradient id="paint2_linear" x1="438.14" y1="327.61" x2="328.69" y2="274.24" gradientUnits="userSpaceOnUse"><stop offset="0" stop-color="#E6E6E6"/><stop offset=".42" stop-color="#E9E9E9"/><stop offset=".77" stop-color="#F3F3F3"/><stop offset="1" stop-color="#fff"/></linearGradient><linearGradient id="paint3_linear" x1="323.58" y1="288.91" x2="464.02" y2="309.34" gradientUnits="userSpaceOnUse"><stop stop-color="#fff"/><stop offset=".4" stop-color="#FBFBFB"/><stop offset=".8" stop-color="#EFEFEF"/><stop offset="1" stop-color="#E6E6E6"/></linearGradient><linearGradient id="paint4_linear" x1="372.19" y1="302.55" x2="380.77" y2="302.55" gradientUnits="userSpaceOnUse"><stop stop-color="#E4F3FF"/><stop offset=".05" stop-color="#E0F2FF"/><stop offset=".41" stop-color="#C7EAFF"/><stop offset=".73" stop-color="#B8E5FF"/><stop offset="1" stop-color="#B3E3FF"/></linearGradient><linearGradient id="paint5_linear" x1="366.54" y1="299.96" x2="377.49" y2="299.96" gradientUnits="userSpaceOnUse"><stop offset="0" stop-color="#CCC"/><stop offset=".55" stop-color="#E2E2E2"/><stop offset="1" stop-color="#EFEFEF"/></linearGradient><linearGradient id="paint6_linear" x1="371.4" y1="295.8" x2="379.86" y2="295.8" gradientUnits="userSpaceOnUse"><stop stop-color="#E4F3FF"/><stop offset=".05" stop-color="#E0F2FF"/><stop offset=".41" stop-color="#C7EAFF"/><stop offset=".73" stop-color="#B8E5FF"/><stop offset="1" stop-color="#B3E3FF"/></linearGradient><linearGradient id="paint7_linear" x1="365.83" y1="293.85" x2="378.6" y2="293.85" gradientUnits="userSpaceOnUse"><stop offset="0" stop-color="#CCC"/><stop offset=".55" stop-color="#E2E2E2"/><stop offset="1" stop-color="#EFEFEF"/></linearGradient><linearGradient id="paint8_linear" x1="372.43" y1="289.89" x2="380.07" y2="289.89" gradientUnits="userSpaceOnUse"><stop stop-color="#E4F3FF"/><stop offset=".05" stop-color="#E0F2FF"/><stop offset=".41" stop-color="#C7EAFF"/><stop offset=".73" stop-color="#B8E5FF"/><stop offset="1" stop-color="#B3E3FF"/></linearGradient><linearGradient id="paint9_linear" x1="366.24" y1="287.37" x2="377.38" y2="287.37" gradientUnits="userSpaceOnUse"><stop offset="0" stop-color="#CCC"/><stop offset=".55" stop-color="#E2E2E2"/><stop offset="1" stop-color="#EFEFEF"/></linearGradient><linearGradient id="paint10_linear" x1="398.14" y1="292.84" x2="406.29" y2="292.84" gradientUnits="userSpaceOnUse"><stop stop-color="#E4F3FF"/><stop offset=".05" stop-color="#E0F2FF"/><stop offset=".41" stop-color="#C7EAFF"/><stop offset=".73" stop-color="#B8E5FF"/><stop offset="1" stop-color="#B3E3FF"/></linearGradient><linearGradient id="paint11_linear" x1="392.56" y1="290.38" x2="403.05" y2="290.38" gradientUnits="userSpaceOnUse"><stop offset="0" stop-color="#CCC"/><stop offset=".55" stop-color="#E2E2E2"/><stop offset="1" stop-color="#EFEFEF"/></linearGradient><linearGradient id="paint12_linear" x1="393.96" y1="285.59" x2="404.31" y2="285.59" gradientUnits="userSpaceOnUse"><stop stop-color="#E4F3FF"/><stop offset=".05" stop-color="#E0F2FF"/><stop offset=".41" stop-color="#C7EAFF"/><stop offset=".73" stop-color="#B8E5FF"/><stop offset="1" stop-color="#B3E3FF"/></linearGradient><linearGradient id="paint13_linear" x1="390.77" y1="283.13" x2="398.63" y2="283.13" gradientUnits="userSpaceOnUse"><stop offset="0" stop-color="#CCC"/><stop offset=".55" stop-color="#E2E2E2"/><stop offset="1" stop-color="#EFEFEF"/></linearGradient><linearGradient id="paint14_linear" x1="372.99" y1="284.28" x2="379.93" y2="284.28" gradientUnits="userSpaceOnUse"><stop offset="0" stop-color="#CCC"/><stop offset=".55" stop-color="#E2E2E2"/><stop offset="1" stop-color="#EFEFEF"/></linearGradient><linearGradient id="paint15_linear" x1="374.21" y1="285.24" x2="382.37" y2="285.24" gradientUnits="userSpaceOnUse"><stop stop-color="#E4F3FF"/><stop offset=".05" stop-color="#E0F2FF"/><stop offset=".41" stop-color="#C7EAFF"/><stop offset=".73" stop-color="#B8E5FF"/><stop offset="1" stop-color="#B3E3FF"/></linearGradient><linearGradient id="paint16_linear" x1="373.14" y1="278.27" x2="379.2" y2="278.27" gradientUnits="userSpaceOnUse"><stop offset="0" stop-color="#1ED4FF"/><stop offset=".74" stop-color="#16AAFF"/><stop offset="1" stop-color="#108FFE"/></linearGradient><linearGradient id="paint17_linear" x1="377.18" y1="280.53" x2="383.25" y2="280.53" gradientUnits="userSpaceOnUse"><stop stop-color="#E4F3FF"/><stop offset=".05" stop-color="#E0F2FF"/><stop offset=".41" stop-color="#C7EAFF"/><stop offset=".73" stop-color="#B8E5FF"/><stop offset="1" stop-color="#B3E3FF"/></linearGradient><linearGradient id="paint18_linear" x1="381.62" y1="283.02" x2="387.71" y2="283.02" gradientUnits="userSpaceOnUse"><stop offset="0" stop-color="#CCC"/><stop offset=".55" stop-color="#E2E2E2"/><stop offset="1" stop-color="#EFEFEF"/></linearGradient><linearGradient id="paint19_linear" x1="390.84" y1="308.66" x2="433.8" y2="308.66" gradientUnits="userSpaceOnUse"><stop offset="0" stop-color="#ACD2FE"/><stop offset=".34" stop-color="#C8DEF8"/><stop offset=".76" stop-color="#E4EAF1"/><stop offset="1" stop-color="#EFEFEF"/></linearGradient><linearGradient id="paint20_linear" x1="395.56" y1="311.2" x2="438.52" y2="311.2" gradientUnits="userSpaceOnUse"><stop offset="0" stop-color="#ACD2FE"/><stop offset=".34" stop-color="#C8DEF8"/><stop offset=".76" stop-color="#E4EAF1"/><stop offset="1" stop-color="#EFEFEF"/></linearGradient><linearGradient id="paint21_linear" x1="401.65" y1="313.62" x2="444.61" y2="313.62" gradientUnits="userSpaceOnUse"><stop offset="0" stop-color="#ACD2FE"/><stop offset=".34" stop-color="#C8DEF8"/><stop offset=".76" stop-color="#E4EAF1"/><stop offset="1" stop-color="#EFEFEF"/></linearGradient><linearGradient id="paint22_linear" x1="406.29" y1="315.88" x2="449.25" y2="315.88" gradientUnits="userSpaceOnUse"><stop offset="0" stop-color="#ACD2FE"/><stop offset=".34" stop-color="#C8DEF8"/><stop offset=".76" stop-color="#E4EAF1"/><stop offset="1" stop-color="#EFEFEF"/></linearGradient><linearGradient id="paint23_linear" x1="334.54" y1="276.64" x2="377.5" y2="276.64" gradientUnits="userSpaceOnUse"><stop offset="0" stop-color="#ACD2FE"/><stop offset=".34" stop-color="#C8DEF8"/><stop offset=".76" stop-color="#E4EAF1"/><stop offset="1" stop-color="#EFEFEF"/></linearGradient><linearGradient id="paint24_linear" x1="338.67" y1="278.89" x2="381.62" y2="278.89" gradientUnits="userSpaceOnUse"><stop offset="0" stop-color="#ACD2FE"/><stop offset=".34" stop-color="#C8DEF8"/><stop offset=".76" stop-color="#E4EAF1"/><stop offset="1" stop-color="#EFEFEF"/></linearGradient><linearGradient id="paint25_linear" x1="238.06" y1="207.15" x2="257.59" y2="246.17" gradientUnits="userSpaceOnUse"><stop offset="0" stop-color="#E6E6E6"/><stop offset=".16" stop-color="#E2E2E2"/><stop offset=".3" stop-color="#D8D8D8"/><stop offset=".44" stop-color="#C6C6C6"/><stop offset=".51" stop-color="#B8B8B8"/><stop offset=".55" stop-color="#CACACA"/><stop offset=".6" stop-color="#DBDBDB"/><stop offset=".66" stop-color="#E6E6E6"/><stop offset=".75" stop-color="#EDEDED"/><stop offset="1" stop-color="#EFEFEF"/></linearGradient><linearGradient id="paint26_linear" x1="196.04" y1="283.04" x2="346.34" y2="283.04" gradientUnits="userSpaceOnUse"><stop/><stop offset=".1" stop-color="#111"/><stop offset=".29" stop-color="#3C3C3C"/><stop offset=".56" stop-color="#818181"/><stop offset=".9" stop-color="#E0E0E0"/><stop offset="1" stop-color="#fff"/></linearGradient><linearGradient id="paint27_linear" x1="305.86" y1="253" x2="215.84" y2="311.02" gradientUnits="userSpaceOnUse"><stop offset="0" stop-color="#E6E6E6"/><stop offset=".99" stop-color="#fff"/><stop offset="1" stop-color="#fff"/></linearGradient><linearGradient id="paint28_linear" x1="214.8" y1="289.58" x2="226.39" y2="289.58" gradientUnits="userSpaceOnUse"><stop stop-color="#108FFE"/><stop offset=".26" stop-color="#16AAFF"/><stop offset="1" stop-color="#1ED4FF"/></linearGradient><linearGradient id="paint29_linear" x1="222.01" y1="285.29" x2="233.6" y2="285.29" gradientUnits="userSpaceOnUse"><stop stop-color="#108FFE"/><stop offset=".26" stop-color="#16AAFF"/><stop offset="1" stop-color="#1ED4FF"/></linearGradient><linearGradient id="paint30_linear" x1="229.28" y1="281.03" x2="240.87" y2="281.03" gradientUnits="userSpaceOnUse"><stop stop-color="#108FFE"/><stop offset=".26" stop-color="#16AAFF"/><stop offset="1" stop-color="#1ED4FF"/></linearGradient><linearGradient id="paint31_linear" x1="236.49" y1="276.74" x2="248.08" y2="276.74" gradientUnits="userSpaceOnUse"><stop stop-color="#108FFE"/><stop offset=".26" stop-color="#16AAFF"/><stop offset="1" stop-color="#1ED4FF"/></linearGradient><linearGradient id="paint32_linear" x1="244.19" y1="272.61" x2="255.78" y2="272.61" gradientUnits="userSpaceOnUse"><stop stop-color="#108FFE"/><stop offset=".26" stop-color="#16AAFF"/><stop offset="1" stop-color="#1ED4FF"/></linearGradient><linearGradient id="paint33_linear" x1="251.41" y1="268.32" x2="263" y2="268.32" gradientUnits="userSpaceOnUse"><stop stop-color="#108FFE"/><stop offset=".26" stop-color="#16AAFF"/><stop offset="1" stop-color="#1ED4FF"/></linearGradient><linearGradient id="paint34_linear" x1="258.67" y1="264.06" x2="270.26" y2="264.06" gradientUnits="userSpaceOnUse"><stop stop-color="#108FFE"/><stop offset=".26" stop-color="#16AAFF"/><stop offset="1" stop-color="#1ED4FF"/></linearGradient><linearGradient id="paint35_linear" x1="265.89" y1="259.76" x2="277.48" y2="259.76" gradientUnits="userSpaceOnUse"><stop stop-color="#108FFE"/><stop offset=".26" stop-color="#16AAFF"/><stop offset="1" stop-color="#1ED4FF"/></linearGradient><linearGradient id="paint36_linear" x1="273.39" y1="255.51" x2="284.98" y2="255.51" gradientUnits="userSpaceOnUse"><stop stop-color="#108FFE"/><stop offset=".26" stop-color="#16AAFF"/><stop offset="1" stop-color="#1ED4FF"/></linearGradient><linearGradient id="paint37_linear" x1="280.6" y1="251.21" x2="292.19" y2="251.21" gradientUnits="userSpaceOnUse"><stop stop-color="#108FFE"/><stop offset=".26" stop-color="#16AAFF"/><stop offset="1" stop-color="#1ED4FF"/></linearGradient><linearGradient id="paint38_linear" x1="287.87" y1="246.95" x2="299.46" y2="246.95" gradientUnits="userSpaceOnUse"><stop stop-color="#108FFE"/><stop offset=".26" stop-color="#16AAFF"/><stop offset="1" stop-color="#1ED4FF"/></linearGradient><linearGradient id="paint39_linear" x1="221.68" y1="293.47" x2="233.27" y2="293.47" gradientUnits="userSpaceOnUse"><stop stop-color="#108FFE"/><stop offset=".26" stop-color="#16AAFF"/><stop offset="1" stop-color="#1ED4FF"/></linearGradient><linearGradient id="paint40_linear" x1="228.9" y1="289.17" x2="240.49" y2="289.17" gradientUnits="userSpaceOnUse"><stop stop-color="#108FFE"/><stop offset=".26" stop-color="#16AAFF"/><stop offset="1" stop-color="#1ED4FF"/></linearGradient><linearGradient id="paint41_linear" x1="236.16" y1="284.92" x2="247.75" y2="284.92" gradientUnits="userSpaceOnUse"><stop stop-color="#108FFE"/><stop offset=".26" stop-color="#16AAFF"/><stop offset="1" stop-color="#1ED4FF"/></linearGradient><linearGradient id="paint42_linear" x1="243.38" y1="280.62" x2="254.97" y2="280.62" gradientUnits="userSpaceOnUse"><stop stop-color="#108FFE"/><stop offset=".26" stop-color="#16AAFF"/><stop offset="1" stop-color="#1ED4FF"/></linearGradient><linearGradient id="paint43_linear" x1="251.08" y1="276.5" x2="262.67" y2="276.5" gradientUnits="userSpaceOnUse"><stop stop-color="#108FFE"/><stop offset=".26" stop-color="#16AAFF"/><stop offset="1" stop-color="#1ED4FF"/></linearGradient><linearGradient id="paint44_linear" x1="258.3" y1="272.2" x2="269.89" y2="272.2" gradientUnits="userSpaceOnUse"><stop stop-color="#108FFE"/><stop offset=".26" stop-color="#16AAFF"/><stop offset="1" stop-color="#1ED4FF"/></linearGradient><linearGradient id="paint45_linear" x1="265.56" y1="267.95" x2="277.15" y2="267.95" gradientUnits="userSpaceOnUse"><stop stop-color="#108FFE"/><stop offset=".26" stop-color="#16AAFF"/><stop offset="1" stop-color="#1ED4FF"/></linearGradient><linearGradient id="paint46_linear" x1="272.78" y1="263.65" x2="284.37" y2="263.65" gradientUnits="userSpaceOnUse"><stop stop-color="#108FFE"/><stop offset=".26" stop-color="#16AAFF"/><stop offset="1" stop-color="#1ED4FF"/></linearGradient><linearGradient id="paint47_linear" x1="280.27" y1="259.39" x2="291.86" y2="259.39" gradientUnits="userSpaceOnUse"><stop stop-color="#108FFE"/><stop offset=".26" stop-color="#16AAFF"/><stop offset="1" stop-color="#1ED4FF"/></linearGradient><linearGradient id="paint48_linear" x1="287.49" y1="255.1" x2="299.08" y2="255.1" gradientUnits="userSpaceOnUse"><stop stop-color="#108FFE"/><stop offset=".26" stop-color="#16AAFF"/><stop offset="1" stop-color="#1ED4FF"/></linearGradient><linearGradient id="paint49_linear" x1="294.75" y1="250.84" x2="306.34" y2="250.84" gradientUnits="userSpaceOnUse"><stop stop-color="#108FFE"/><stop offset=".26" stop-color="#16AAFF"/><stop offset="1" stop-color="#1ED4FF"/></linearGradient><linearGradient id="paint50_linear" x1="228.06" y1="296.79" x2="239.65" y2="296.79" gradientUnits="userSpaceOnUse"><stop stop-color="#108FFE"/><stop offset=".26" stop-color="#16AAFF"/><stop offset="1" stop-color="#1ED4FF"/></linearGradient><linearGradient id="paint51_linear" x1="235.27" y1="292.49" x2="246.86" y2="292.49" gradientUnits="userSpaceOnUse"><stop stop-color="#108FFE"/><stop offset=".26" stop-color="#16AAFF"/><stop offset="1" stop-color="#1ED4FF"/></linearGradient><linearGradient id="paint52_linear" x1="242.54" y1="288.24" x2="254.13" y2="288.24" gradientUnits="userSpaceOnUse"><stop stop-color="#108FFE"/><stop offset=".26" stop-color="#16AAFF"/><stop offset="1" stop-color="#1ED4FF"/></linearGradient><linearGradient id="paint53_linear" x1="249.75" y1="283.94" x2="261.35" y2="283.94" gradientUnits="userSpaceOnUse"><stop stop-color="#108FFE"/><stop offset=".26" stop-color="#16AAFF"/><stop offset="1" stop-color="#1ED4FF"/></linearGradient><linearGradient id="paint54_linear" x1="257.46" y1="279.82" x2="269.05" y2="279.82" gradientUnits="userSpaceOnUse"><stop stop-color="#108FFE"/><stop offset=".26" stop-color="#16AAFF"/><stop offset="1" stop-color="#1ED4FF"/></linearGradient><linearGradient id="paint55_linear" x1="264.67" y1="275.52" x2="276.26" y2="275.52" gradientUnits="userSpaceOnUse"><stop stop-color="#108FFE"/><stop offset=".26" stop-color="#16AAFF"/><stop offset="1" stop-color="#1ED4FF"/></linearGradient><linearGradient id="paint56_linear" x1="271.94" y1="271.26" x2="283.53" y2="271.26" gradientUnits="userSpaceOnUse"><stop stop-color="#108FFE"/><stop offset=".26" stop-color="#16AAFF"/><stop offset="1" stop-color="#1ED4FF"/></linearGradient><linearGradient id="paint57_linear" x1="279.15" y1="266.97" x2="290.74" y2="266.97" gradientUnits="userSpaceOnUse"><stop stop-color="#108FFE"/><stop offset=".26" stop-color="#16AAFF"/><stop offset="1" stop-color="#1ED4FF"/></linearGradient><linearGradient id="paint58_linear" x1="286.65" y1="262.71" x2="298.24" y2="262.71" gradientUnits="userSpaceOnUse"><stop stop-color="#108FFE"/><stop offset=".26" stop-color="#16AAFF"/><stop offset="1" stop-color="#1ED4FF"/></linearGradient><linearGradient id="paint59_linear" x1="293.86" y1="258.42" x2="305.45" y2="258.42" gradientUnits="userSpaceOnUse"><stop stop-color="#108FFE"/><stop offset=".26" stop-color="#16AAFF"/><stop offset="1" stop-color="#1ED4FF"/></linearGradient><linearGradient id="paint60_linear" x1="301.13" y1="254.51" x2="312.72" y2="254.51" gradientUnits="userSpaceOnUse"><stop stop-color="#108FFE"/><stop offset=".26" stop-color="#16AAFF"/><stop offset="1" stop-color="#1ED4FF"/></linearGradient><linearGradient id="paint61_linear" x1="234.95" y1="300.68" x2="246.54" y2="300.68" gradientUnits="userSpaceOnUse"><stop stop-color="#108FFE"/><stop offset=".26" stop-color="#16AAFF"/><stop offset="1" stop-color="#1ED4FF"/></linearGradient><linearGradient id="paint62_linear" x1="242.16" y1="296.38" x2="253.75" y2="296.38" gradientUnits="userSpaceOnUse"><stop stop-color="#108FFE"/><stop offset=".26" stop-color="#16AAFF"/><stop offset="1" stop-color="#1ED4FF"/></linearGradient><linearGradient id="paint63_linear" x1="249.42" y1="292.12" x2="261.01" y2="292.12" gradientUnits="userSpaceOnUse"><stop stop-color="#108FFE"/><stop offset=".26" stop-color="#16AAFF"/><stop offset="1" stop-color="#1ED4FF"/></linearGradient><linearGradient id="paint64_linear" x1="256.64" y1="287.82" x2="268.23" y2="287.82" gradientUnits="userSpaceOnUse"><stop stop-color="#108FFE"/><stop offset=".26" stop-color="#16AAFF"/><stop offset="1" stop-color="#1ED4FF"/></linearGradient><linearGradient id="paint65_linear" x1="300.75" y1="262.3" x2="312.34" y2="262.3" gradientUnits="userSpaceOnUse"><stop stop-color="#108FFE"/><stop offset=".26" stop-color="#16AAFF"/><stop offset="1" stop-color="#1ED4FF"/></linearGradient><linearGradient id="paint66_linear" x1="293.28" y1="266.87" x2="304.87" y2="266.87" gradientUnits="userSpaceOnUse"><stop stop-color="#108FFE"/><stop offset=".26" stop-color="#16AAFF"/><stop offset="1" stop-color="#1ED4FF"/></linearGradient><linearGradient id="paint67_linear" x1="307.76" y1="258.38" x2="319.35" y2="258.38" gradientUnits="userSpaceOnUse"><stop stop-color="#108FFE"/><stop offset=".26" stop-color="#16AAFF"/><stop offset="1" stop-color="#1ED4FF"/></linearGradient><linearGradient id="paint68_linear" x1="274.59" y1="283.87" x2="305.68" y2="283.87" gradientUnits="userSpaceOnUse"><stop stop-color="#108FFE"/><stop offset=".26" stop-color="#16AAFF"/><stop offset="1" stop-color="#1ED4FF"/></linearGradient><linearGradient id="paint69_linear" x1="265.24" y1="277.11" x2="297.19" y2="277.11" gradientUnits="userSpaceOnUse"><stop stop-color="#108FFE"/><stop offset=".26" stop-color="#16AAFF"/><stop offset="1" stop-color="#1ED4FF"/></linearGradient><linearGradient id="paint70_linear" x1="150.1" y1="73.83" x2="315.19" y2="73.83" gradientUnits="userSpaceOnUse"><stop offset="0" stop-color="#3A608C"/><stop offset=".06" stop-color="#306CA8"/><stop offset=".12" stop-color="#2677C3"/><stop offset=".2" stop-color="#1E80D9"/><stop offset=".29" stop-color="#1887EA"/><stop offset=".41" stop-color="#138BF5"/><stop offset=".56" stop-color="#118EFC"/><stop offset="1" stop-color="#108FFE"/></linearGradient><linearGradient id="paint71_linear" x1="148.5" y1="248.36" x2="299.7" y2="176.13" gradientUnits="userSpaceOnUse"><stop offset="0" stop-color="#E6E6E6"/><stop offset="1" stop-color="#F2F2F2"/></linearGradient><linearGradient id="paint72_linear" x1="334.2" y1="246" x2="338.25" y2="228.55" gradientUnits="userSpaceOnUse"><stop stop-color="#F7FBFF"/><stop offset=".53" stop-color="#F5F9FD"/><stop offset=".74" stop-color="#EEF2F6"/><stop offset=".9" stop-color="#E2E6EA"/><stop offset="1" stop-color="#D5D9DD"/></linearGradient><linearGradient id="paint73_linear" x1="145.92" y1="335.23" x2="245.8" y2="335.23" gradientUnits="userSpaceOnUse"><stop stop-color="#fff"/><stop offset=".04" stop-color="#D4D4D4"/><stop offset=".1" stop-color="#A8A8A8"/><stop offset=".16" stop-color="gray"/><stop offset=".22" stop-color="#5D5D5D"/><stop offset=".29" stop-color="#404040"/><stop offset=".37" stop-color="#282828"/><stop offset=".46" stop-color="#161616"/><stop offset=".56" stop-color="#0A0A0A"/><stop offset=".7" stop-color="#020202"/><stop offset="1"/></linearGradient><linearGradient id="paint74_linear" x1="162.53" y1="333.97" x2="176.4" y2="333.97" gradientUnits="userSpaceOnUse"><stop stop-color="#E4F3FF"/><stop offset=".05" stop-color="#E0F2FF"/><stop offset=".41" stop-color="#C7EAFF"/><stop offset=".73" stop-color="#B8E5FF"/><stop offset="1" stop-color="#B3E3FF"/></linearGradient><linearGradient id="paint75_linear" x1="171.89" y1="328.48" x2="185.76" y2="328.48" gradientUnits="userSpaceOnUse"><stop stop-color="#E4F3FF"/><stop offset=".05" stop-color="#E0F2FF"/><stop offset=".41" stop-color="#C7EAFF"/><stop offset=".73" stop-color="#B8E5FF"/><stop offset="1" stop-color="#B3E3FF"/></linearGradient><linearGradient id="paint76_linear" x1="181.02" y1="323.1" x2="194.89" y2="323.1" gradientUnits="userSpaceOnUse"><stop stop-color="#E4F3FF"/><stop offset=".05" stop-color="#E0F2FF"/><stop offset=".41" stop-color="#C7EAFF"/><stop offset=".73" stop-color="#B8E5FF"/><stop offset="1" stop-color="#B3E3FF"/></linearGradient><linearGradient id="paint77_linear" x1="190.78" y1="317.57" x2="204.65" y2="317.57" gradientUnits="userSpaceOnUse"><stop stop-color="#E4F3FF"/><stop offset=".05" stop-color="#E0F2FF"/><stop offset=".41" stop-color="#C7EAFF"/><stop offset=".73" stop-color="#B8E5FF"/><stop offset="1" stop-color="#B3E3FF"/></linearGradient><linearGradient id="paint78_linear" x1="170.08" y1="338.29" x2="183.95" y2="338.29" gradientUnits="userSpaceOnUse"><stop stop-color="#E4F3FF"/><stop offset=".05" stop-color="#E0F2FF"/><stop offset=".41" stop-color="#C7EAFF"/><stop offset=".73" stop-color="#B8E5FF"/><stop offset="1" stop-color="#B3E3FF"/></linearGradient><linearGradient id="paint79_linear" x1="179.43" y1="332.8" x2="193.3" y2="332.8" gradientUnits="userSpaceOnUse"><stop stop-color="#E4F3FF"/><stop offset=".05" stop-color="#E0F2FF"/><stop offset=".41" stop-color="#C7EAFF"/><stop offset=".73" stop-color="#B8E5FF"/><stop offset="1" stop-color="#B3E3FF"/></linearGradient><linearGradient id="paint80_linear" x1="188.57" y1="327.42" x2="202.43" y2="327.42" gradientUnits="userSpaceOnUse"><stop stop-color="#E4F3FF"/><stop offset=".05" stop-color="#E0F2FF"/><stop offset=".41" stop-color="#C7EAFF"/><stop offset=".73" stop-color="#B8E5FF"/><stop offset="1" stop-color="#B3E3FF"/></linearGradient><linearGradient id="paint81_linear" x1="206.56" y1="330.64" x2="236.76" y2="330.64" gradientUnits="userSpaceOnUse"><stop stop-color="#E4F3FF"/><stop offset=".05" stop-color="#E0F2FF"/><stop offset=".41" stop-color="#C7EAFF"/><stop offset=".73" stop-color="#B8E5FF"/><stop offset="1" stop-color="#B3E3FF"/></linearGradient><linearGradient id="paint82_linear" x1="177.85" y1="342.76" x2="191.71" y2="342.76" gradientUnits="userSpaceOnUse"><stop stop-color="#E4F3FF"/><stop offset=".05" stop-color="#E0F2FF"/><stop offset=".41" stop-color="#C7EAFF"/><stop offset=".73" stop-color="#B8E5FF"/><stop offset="1" stop-color="#B3E3FF"/></linearGradient><linearGradient id="paint83_linear" x1="187.2" y1="337.27" x2="201.07" y2="337.27" gradientUnits="userSpaceOnUse"><stop stop-color="#E4F3FF"/><stop offset=".05" stop-color="#E0F2FF"/><stop offset=".41" stop-color="#C7EAFF"/><stop offset=".73" stop-color="#B8E5FF"/><stop offset="1" stop-color="#B3E3FF"/></linearGradient><linearGradient id="paint84_linear" x1="196.33" y1="331.89" x2="210.2" y2="331.89" gradientUnits="userSpaceOnUse"><stop stop-color="#E4F3FF"/><stop offset=".05" stop-color="#E0F2FF"/><stop offset=".41" stop-color="#C7EAFF"/><stop offset=".73" stop-color="#B8E5FF"/><stop offset="1" stop-color="#B3E3FF"/></linearGradient><linearGradient id="paint85_linear" x1="185.75" y1="346.8" x2="199.62" y2="346.8" gradientUnits="userSpaceOnUse"><stop stop-color="#E4F3FF"/><stop offset=".05" stop-color="#E0F2FF"/><stop offset=".41" stop-color="#C7EAFF"/><stop offset=".73" stop-color="#B8E5FF"/><stop offset="1" stop-color="#B3E3FF"/></linearGradient><linearGradient id="paint86_linear" x1="195.11" y1="341.32" x2="208.98" y2="341.32" gradientUnits="userSpaceOnUse"><stop stop-color="#E4F3FF"/><stop offset=".05" stop-color="#E0F2FF"/><stop offset=".41" stop-color="#C7EAFF"/><stop offset=".73" stop-color="#B8E5FF"/><stop offset="1" stop-color="#B3E3FF"/></linearGradient><linearGradient id="paint87_linear" x1="204.24" y1="335.94" x2="218.11" y2="335.94" gradientUnits="userSpaceOnUse"><stop stop-color="#E4F3FF"/><stop offset=".05" stop-color="#E0F2FF"/><stop offset=".41" stop-color="#C7EAFF"/><stop offset=".73" stop-color="#B8E5FF"/><stop offset="1" stop-color="#B3E3FF"/></linearGradient><linearGradient id="paint88_linear" x1="194.05" y1="351.97" x2="207.92" y2="351.97" gradientUnits="userSpaceOnUse"><stop stop-color="#E4F3FF"/><stop offset=".05" stop-color="#E0F2FF"/><stop offset=".41" stop-color="#C7EAFF"/><stop offset=".73" stop-color="#B8E5FF"/><stop offset="1" stop-color="#B3E3FF"/></linearGradient><linearGradient id="paint89_linear" x1="203.4" y1="346.49" x2="217.27" y2="346.49" gradientUnits="userSpaceOnUse"><stop stop-color="#E4F3FF"/><stop offset=".05" stop-color="#E0F2FF"/><stop offset=".41" stop-color="#C7EAFF"/><stop offset=".73" stop-color="#B8E5FF"/><stop offset="1" stop-color="#B3E3FF"/></linearGradient><linearGradient id="paint90_linear" x1="212.53" y1="341.11" x2="226.4" y2="341.11" gradientUnits="userSpaceOnUse"><stop stop-color="#E4F3FF"/><stop offset=".05" stop-color="#E0F2FF"/><stop offset=".41" stop-color="#C7EAFF"/><stop offset=".73" stop-color="#B8E5FF"/><stop offset="1" stop-color="#B3E3FF"/></linearGradient><linearGradient id="paint91_linear" x1="198.1" y1="322.14" x2="211.97" y2="322.14" gradientUnits="userSpaceOnUse"><stop stop-color="#E4F3FF"/><stop offset=".05" stop-color="#E0F2FF"/><stop offset=".41" stop-color="#C7EAFF"/><stop offset=".73" stop-color="#B8E5FF"/><stop offset="1" stop-color="#B3E3FF"/></linearGradient><linearGradient id="paint92_linear" x1="153.65" y1="315.7" x2="195.1" y2="315.7" gradientUnits="userSpaceOnUse"><stop stop-color="#C9F5FF"/><stop offset=".12" stop-color="#BCF2FF"/><stop offset=".36" stop-color="#99ECFF"/><stop offset=".67" stop-color="#61E1FF"/><stop offset="1" stop-color="#1ED4FF"/></linearGradient><linearGradient id="paint93_linear" x1="203.17" y1="359.27" x2="243.73" y2="336.55" gradientUnits="userSpaceOnUse"><stop stop-color="#108FFE"/><stop offset=".71" stop-color="#16AAFF"/><stop offset=".83" stop-color="#16ADFF"/><stop offset=".9" stop-color="#18B5FF"/><stop offset=".95" stop-color="#1BC3FF"/><stop offset="1" stop-color="#1ED4FF"/></linearGradient><clipPath id="clip0"><path fill="#fff" transform="translate(54 .98)" d="M0 0h483.73v387.45H0z"/></clipPath></defs></svg>